<mxfile host="app.diagrams.net" modified="2023-05-20T13:45:08.763Z" agent="Mozilla/5.0 (Windows NT 10.0; Win64; x64) AppleWebKit/537.36 (KHTML, like Gecko) Chrome/113.0.0.0 Safari/537.36" etag="bSMQ87oGi5WAmB6qJoEL" version="21.3.0" type="device">
  <diagram name="Page-1" id="rDroMqvgq4sp8sMrG8O2">
    <mxGraphModel dx="1677" dy="1508" grid="1" gridSize="10" guides="1" tooltips="1" connect="1" arrows="1" fold="1" page="1" pageScale="1" pageWidth="850" pageHeight="1100" math="0" shadow="0">
      <root>
        <mxCell id="0" />
        <mxCell id="1" parent="0" />
        <mxCell id="DVrZE9xDPVvh2_FHzCL8-2" value="positions" style="shape=umlFrame;whiteSpace=wrap;html=1;pointerEvents=0;fillColor=#dae8fc;strokeColor=#6c8ebf;strokeWidth=5;" parent="1" vertex="1">
          <mxGeometry x="353" y="-360" width="300" height="305" as="geometry" />
        </mxCell>
        <mxCell id="DVrZE9xDPVvh2_FHzCL8-3" value="&lt;i&gt;Ground&lt;/i&gt;" style="html=1;whiteSpace=wrap;" parent="1" vertex="1">
          <mxGeometry x="453" y="-185" width="110" height="50" as="geometry" />
        </mxCell>
        <mxCell id="DVrZE9xDPVvh2_FHzCL8-4" value="environments" style="shape=umlFrame;whiteSpace=wrap;html=1;pointerEvents=0;width=85;height=30;fillColor=#dae8fc;strokeColor=#6c8ebf;strokeWidth=5;" parent="1" vertex="1">
          <mxGeometry x="-600" y="640" width="1358" height="560" as="geometry" />
        </mxCell>
        <mxCell id="DVrZE9xDPVvh2_FHzCL8-19" style="edgeStyle=orthogonalEdgeStyle;rounded=0;orthogonalLoop=1;jettySize=auto;html=1;exitX=0.5;exitY=0;exitDx=0;exitDy=0;entryX=0.5;entryY=1;entryDx=0;entryDy=0;endArrow=block;endFill=0;" parent="1" source="DVrZE9xDPVvh2_FHzCL8-6" target="DVrZE9xDPVvh2_FHzCL8-3" edge="1">
          <mxGeometry relative="1" as="geometry" />
        </mxCell>
        <mxCell id="DVrZE9xDPVvh2_FHzCL8-43" style="edgeStyle=orthogonalEdgeStyle;rounded=0;orthogonalLoop=1;jettySize=auto;html=1;exitX=1;exitY=0.5;exitDx=0;exitDy=0;entryX=0;entryY=0.5;entryDx=0;entryDy=0;dashed=1;endArrow=open;endFill=0;" parent="1" source="DVrZE9xDPVvh2_FHzCL8-6" target="DVrZE9xDPVvh2_FHzCL8-41" edge="1">
          <mxGeometry relative="1" as="geometry" />
        </mxCell>
        <mxCell id="nA44q0fjmFgXWdIEp-3O-10" style="edgeStyle=orthogonalEdgeStyle;rounded=0;orthogonalLoop=1;jettySize=auto;html=1;exitX=0;exitY=0.5;exitDx=0;exitDy=0;entryX=0;entryY=0.75;entryDx=0;entryDy=0;dashed=1;endArrow=open;endFill=0;" parent="1" source="DVrZE9xDPVvh2_FHzCL8-6" target="nA44q0fjmFgXWdIEp-3O-5" edge="1">
          <mxGeometry relative="1" as="geometry">
            <Array as="points">
              <mxPoint x="420" y="895" />
              <mxPoint x="420" y="-262" />
            </Array>
          </mxGeometry>
        </mxCell>
        <mxCell id="DVrZE9xDPVvh2_FHzCL8-6" value="&lt;i&gt;Spawner&lt;/i&gt;" style="html=1;whiteSpace=wrap;" parent="1" vertex="1">
          <mxGeometry x="453" y="870" width="110" height="50" as="geometry" />
        </mxCell>
        <mxCell id="DVrZE9xDPVvh2_FHzCL8-13" style="edgeStyle=orthogonalEdgeStyle;rounded=0;orthogonalLoop=1;jettySize=auto;html=1;exitX=0.5;exitY=0;exitDx=0;exitDy=0;entryX=0.5;entryY=1;entryDx=0;entryDy=0;endArrow=block;endFill=0;" parent="1" source="DVrZE9xDPVvh2_FHzCL8-7" target="DVrZE9xDPVvh2_FHzCL8-6" edge="1">
          <mxGeometry relative="1" as="geometry" />
        </mxCell>
        <mxCell id="GQ_4T4zPNiNKJBQMKuDR-16" style="edgeStyle=orthogonalEdgeStyle;rounded=0;orthogonalLoop=1;jettySize=auto;html=1;exitX=0.75;exitY=1;exitDx=0;exitDy=0;entryX=0.5;entryY=1;entryDx=0;entryDy=0;dashed=1;endArrow=open;endFill=0;" parent="1" source="DVrZE9xDPVvh2_FHzCL8-7" target="GvI2FiEt4xrr71h0F2b2-6" edge="1">
          <mxGeometry relative="1" as="geometry">
            <Array as="points">
              <mxPoint x="535" y="1400" />
              <mxPoint x="1224" y="1400" />
            </Array>
          </mxGeometry>
        </mxCell>
        <mxCell id="GQ_4T4zPNiNKJBQMKuDR-28" style="edgeStyle=orthogonalEdgeStyle;rounded=0;orthogonalLoop=1;jettySize=auto;html=1;exitX=0.25;exitY=1;exitDx=0;exitDy=0;entryX=0.25;entryY=1;entryDx=0;entryDy=0;dashed=1;endArrow=open;endFill=0;" parent="1" source="DVrZE9xDPVvh2_FHzCL8-7" target="DVrZE9xDPVvh2_FHzCL8-27" edge="1">
          <mxGeometry relative="1" as="geometry">
            <Array as="points">
              <mxPoint x="481" y="1160" />
              <mxPoint x="1188" y="1160" />
            </Array>
          </mxGeometry>
        </mxCell>
        <mxCell id="DVrZE9xDPVvh2_FHzCL8-7" value="GustOfWind" style="html=1;whiteSpace=wrap;" parent="1" vertex="1">
          <mxGeometry x="453" y="1040" width="110" height="50" as="geometry" />
        </mxCell>
        <mxCell id="DVrZE9xDPVvh2_FHzCL8-14" style="edgeStyle=orthogonalEdgeStyle;rounded=0;orthogonalLoop=1;jettySize=auto;html=1;exitX=0.5;exitY=0;exitDx=0;exitDy=0;entryX=0.5;entryY=1;entryDx=0;entryDy=0;endArrow=block;endFill=0;" parent="1" source="DVrZE9xDPVvh2_FHzCL8-8" target="DVrZE9xDPVvh2_FHzCL8-6" edge="1">
          <mxGeometry relative="1" as="geometry" />
        </mxCell>
        <mxCell id="GQ_4T4zPNiNKJBQMKuDR-14" style="edgeStyle=orthogonalEdgeStyle;rounded=0;orthogonalLoop=1;jettySize=auto;html=1;exitX=0.75;exitY=1;exitDx=0;exitDy=0;entryX=0.5;entryY=1;entryDx=0;entryDy=0;dashed=1;endArrow=open;endFill=0;" parent="1" source="DVrZE9xDPVvh2_FHzCL8-8" target="GvI2FiEt4xrr71h0F2b2-5" edge="1">
          <mxGeometry relative="1" as="geometry">
            <Array as="points">
              <mxPoint x="685" y="1320" />
              <mxPoint x="1465" y="1320" />
            </Array>
          </mxGeometry>
        </mxCell>
        <mxCell id="GQ_4T4zPNiNKJBQMKuDR-15" style="edgeStyle=orthogonalEdgeStyle;rounded=0;orthogonalLoop=1;jettySize=auto;html=1;exitX=0.25;exitY=1;exitDx=0;exitDy=0;entryX=0.5;entryY=1;entryDx=0;entryDy=0;dashed=1;endArrow=open;endFill=0;" parent="1" source="DVrZE9xDPVvh2_FHzCL8-8" target="GvI2FiEt4xrr71h0F2b2-4" edge="1">
          <mxGeometry relative="1" as="geometry">
            <Array as="points">
              <mxPoint x="630" y="1360" />
              <mxPoint x="1345" y="1360" />
            </Array>
          </mxGeometry>
        </mxCell>
        <mxCell id="DVrZE9xDPVvh2_FHzCL8-8" value="PuddleOfWater" style="html=1;whiteSpace=wrap;" parent="1" vertex="1">
          <mxGeometry x="603" y="1040" width="110" height="50" as="geometry" />
        </mxCell>
        <mxCell id="DVrZE9xDPVvh2_FHzCL8-12" style="edgeStyle=orthogonalEdgeStyle;rounded=0;orthogonalLoop=1;jettySize=auto;html=1;exitX=0.5;exitY=0;exitDx=0;exitDy=0;entryX=0.5;entryY=1;entryDx=0;entryDy=0;endArrow=block;endFill=0;" parent="1" source="DVrZE9xDPVvh2_FHzCL8-9" target="DVrZE9xDPVvh2_FHzCL8-6" edge="1">
          <mxGeometry relative="1" as="geometry" />
        </mxCell>
        <mxCell id="GQ_4T4zPNiNKJBQMKuDR-18" style="edgeStyle=orthogonalEdgeStyle;rounded=0;orthogonalLoop=1;jettySize=auto;html=1;exitX=0.75;exitY=1;exitDx=0;exitDy=0;entryX=0.5;entryY=1;entryDx=0;entryDy=0;dashed=1;endArrow=open;endFill=0;" parent="1" source="DVrZE9xDPVvh2_FHzCL8-9" target="GvI2FiEt4xrr71h0F2b2-7" edge="1">
          <mxGeometry relative="1" as="geometry">
            <Array as="points">
              <mxPoint x="386" y="1440" />
              <mxPoint x="1595" y="1440" />
            </Array>
          </mxGeometry>
        </mxCell>
        <mxCell id="GQ_4T4zPNiNKJBQMKuDR-19" style="edgeStyle=orthogonalEdgeStyle;rounded=0;orthogonalLoop=1;jettySize=auto;html=1;exitX=0.25;exitY=1;exitDx=0;exitDy=0;entryX=0.25;entryY=1;entryDx=0;entryDy=0;dashed=1;endArrow=open;endFill=0;" parent="1" source="DVrZE9xDPVvh2_FHzCL8-9" target="GvI2FiEt4xrr71h0F2b2-8" edge="1">
          <mxGeometry relative="1" as="geometry">
            <Array as="points">
              <mxPoint x="331" y="1480" />
              <mxPoint x="1688" y="1480" />
            </Array>
          </mxGeometry>
        </mxCell>
        <mxCell id="DVrZE9xDPVvh2_FHzCL8-9" value="Graveyard" style="html=1;whiteSpace=wrap;" parent="1" vertex="1">
          <mxGeometry x="303" y="1040" width="110" height="50" as="geometry" />
        </mxCell>
        <mxCell id="DVrZE9xDPVvh2_FHzCL8-21" value="actors" style="shape=umlFrame;whiteSpace=wrap;html=1;pointerEvents=0;fillColor=#dae8fc;strokeColor=#6c8ebf;strokeWidth=5;" parent="1" vertex="1">
          <mxGeometry x="1173" y="-240" width="300" height="185" as="geometry" />
        </mxCell>
        <mxCell id="DVrZE9xDPVvh2_FHzCL8-22" value="&lt;i&gt;Actor&lt;/i&gt;" style="html=1;whiteSpace=wrap;" parent="1" vertex="1">
          <mxGeometry x="1268" y="-185" width="110" height="50" as="geometry" />
        </mxCell>
        <mxCell id="DVrZE9xDPVvh2_FHzCL8-23" value="enemies" style="shape=umlFrame;whiteSpace=wrap;html=1;pointerEvents=0;fillColor=#dae8fc;strokeColor=#6c8ebf;strokeWidth=5;" parent="1" vertex="1">
          <mxGeometry x="880" y="720" width="1320" height="560" as="geometry" />
        </mxCell>
        <mxCell id="DVrZE9xDPVvh2_FHzCL8-39" style="edgeStyle=orthogonalEdgeStyle;rounded=0;orthogonalLoop=1;jettySize=auto;html=1;exitX=0.5;exitY=0;exitDx=0;exitDy=0;entryX=0.5;entryY=1;entryDx=0;entryDy=0;endArrow=block;endFill=0;" parent="1" source="DVrZE9xDPVvh2_FHzCL8-24" target="DVrZE9xDPVvh2_FHzCL8-22" edge="1">
          <mxGeometry relative="1" as="geometry">
            <mxPoint x="1323" y="760" as="sourcePoint" />
          </mxGeometry>
        </mxCell>
        <mxCell id="DVrZE9xDPVvh2_FHzCL8-74" style="edgeStyle=orthogonalEdgeStyle;rounded=0;orthogonalLoop=1;jettySize=auto;html=1;exitX=1;exitY=0.5;exitDx=0;exitDy=0;entryX=0;entryY=0.5;entryDx=0;entryDy=0;endArrow=open;endFill=0;" parent="1" source="DVrZE9xDPVvh2_FHzCL8-24" target="DVrZE9xDPVvh2_FHzCL8-62" edge="1">
          <mxGeometry relative="1" as="geometry">
            <Array as="points">
              <mxPoint x="1400" y="895" />
              <mxPoint x="1400" y="375" />
            </Array>
          </mxGeometry>
        </mxCell>
        <mxCell id="DVrZE9xDPVvh2_FHzCL8-75" value="Has" style="edgeLabel;html=1;align=center;verticalAlign=middle;resizable=0;points=[];" parent="DVrZE9xDPVvh2_FHzCL8-74" vertex="1" connectable="0">
          <mxGeometry x="0.1846" y="2" relative="1" as="geometry">
            <mxPoint x="2" y="2" as="offset" />
          </mxGeometry>
        </mxCell>
        <mxCell id="DVrZE9xDPVvh2_FHzCL8-76" value="1" style="edgeLabel;html=1;align=center;verticalAlign=middle;resizable=0;points=[];" parent="DVrZE9xDPVvh2_FHzCL8-74" vertex="1" connectable="0">
          <mxGeometry x="-0.9545" relative="1" as="geometry">
            <mxPoint x="10" y="9" as="offset" />
          </mxGeometry>
        </mxCell>
        <mxCell id="DVrZE9xDPVvh2_FHzCL8-77" value="1..4" style="edgeLabel;html=1;align=center;verticalAlign=middle;resizable=0;points=[];" parent="DVrZE9xDPVvh2_FHzCL8-74" vertex="1" connectable="0">
          <mxGeometry x="0.9307" relative="1" as="geometry">
            <mxPoint x="14" y="-15" as="offset" />
          </mxGeometry>
        </mxCell>
        <mxCell id="SioX63HxhcE3thEykoqD-12" style="edgeStyle=orthogonalEdgeStyle;rounded=0;orthogonalLoop=1;jettySize=auto;html=1;exitX=0;exitY=0.25;exitDx=0;exitDy=0;entryX=0.5;entryY=1;entryDx=0;entryDy=0;endArrow=open;endFill=0;" parent="1" source="DVrZE9xDPVvh2_FHzCL8-24" target="DVrZE9xDPVvh2_FHzCL8-150" edge="1">
          <mxGeometry relative="1" as="geometry" />
        </mxCell>
        <mxCell id="SioX63HxhcE3thEykoqD-14" value="Has" style="edgeLabel;html=1;align=center;verticalAlign=middle;resizable=0;points=[];" parent="SioX63HxhcE3thEykoqD-12" vertex="1" connectable="0">
          <mxGeometry x="0.3126" y="1" relative="1" as="geometry">
            <mxPoint as="offset" />
          </mxGeometry>
        </mxCell>
        <mxCell id="SioX63HxhcE3thEykoqD-18" value="1" style="edgeLabel;html=1;align=center;verticalAlign=middle;resizable=0;points=[];" parent="SioX63HxhcE3thEykoqD-12" vertex="1" connectable="0">
          <mxGeometry x="-0.9622" y="-2" relative="1" as="geometry">
            <mxPoint y="-10" as="offset" />
          </mxGeometry>
        </mxCell>
        <mxCell id="SioX63HxhcE3thEykoqD-23" value="1" style="edgeLabel;html=1;align=center;verticalAlign=middle;resizable=0;points=[];" parent="SioX63HxhcE3thEykoqD-12" vertex="1" connectable="0">
          <mxGeometry x="0.957" y="-1" relative="1" as="geometry">
            <mxPoint x="14" y="-3" as="offset" />
          </mxGeometry>
        </mxCell>
        <mxCell id="GQ_4T4zPNiNKJBQMKuDR-12" style="edgeStyle=orthogonalEdgeStyle;rounded=0;orthogonalLoop=1;jettySize=auto;html=1;exitX=0.75;exitY=0;exitDx=0;exitDy=0;entryX=0.25;entryY=0;entryDx=0;entryDy=0;dashed=1;endArrow=open;endFill=0;" parent="1" source="DVrZE9xDPVvh2_FHzCL8-24" target="GQ_4T4zPNiNKJBQMKuDR-9" edge="1">
          <mxGeometry relative="1" as="geometry">
            <Array as="points">
              <mxPoint x="1351" y="800" />
              <mxPoint x="2723" y="800" />
            </Array>
          </mxGeometry>
        </mxCell>
        <mxCell id="DVrZE9xDPVvh2_FHzCL8-24" value="&lt;i&gt;Enemy&lt;/i&gt;" style="html=1;whiteSpace=wrap;" parent="1" vertex="1">
          <mxGeometry x="1268" y="870" width="110" height="50" as="geometry" />
        </mxCell>
        <mxCell id="DVrZE9xDPVvh2_FHzCL8-33" style="edgeStyle=orthogonalEdgeStyle;rounded=0;orthogonalLoop=1;jettySize=auto;html=1;exitX=0.5;exitY=0;exitDx=0;exitDy=0;endArrow=block;endFill=0;" parent="1" source="DVrZE9xDPVvh2_FHzCL8-25" target="DVrZE9xDPVvh2_FHzCL8-24" edge="1">
          <mxGeometry relative="1" as="geometry" />
        </mxCell>
        <mxCell id="GQ_4T4zPNiNKJBQMKuDR-3" style="edgeStyle=orthogonalEdgeStyle;rounded=0;orthogonalLoop=1;jettySize=auto;html=1;entryX=0;entryY=0.5;entryDx=0;entryDy=0;endArrow=block;endFill=0;dashed=1;exitX=1;exitY=0.5;exitDx=0;exitDy=0;" parent="1" source="DVrZE9xDPVvh2_FHzCL8-25" target="GQ_4T4zPNiNKJBQMKuDR-1" edge="1">
          <mxGeometry relative="1" as="geometry">
            <mxPoint x="1410" y="1065" as="sourcePoint" />
          </mxGeometry>
        </mxCell>
        <mxCell id="DVrZE9xDPVvh2_FHzCL8-25" value="&lt;i&gt;GiantEnemy&lt;/i&gt;" style="html=1;whiteSpace=wrap;" parent="1" vertex="1">
          <mxGeometry x="1290" y="1040" width="110" height="50" as="geometry" />
        </mxCell>
        <mxCell id="DVrZE9xDPVvh2_FHzCL8-34" style="edgeStyle=orthogonalEdgeStyle;rounded=0;orthogonalLoop=1;jettySize=auto;html=1;exitX=0.5;exitY=0;exitDx=0;exitDy=0;entryX=0.5;entryY=1;entryDx=0;entryDy=0;endArrow=block;endFill=0;" parent="1" source="DVrZE9xDPVvh2_FHzCL8-26" target="DVrZE9xDPVvh2_FHzCL8-24" edge="1">
          <mxGeometry relative="1" as="geometry" />
        </mxCell>
        <mxCell id="GQ_4T4zPNiNKJBQMKuDR-2" style="edgeStyle=orthogonalEdgeStyle;rounded=0;orthogonalLoop=1;jettySize=auto;html=1;exitX=0.75;exitY=0;exitDx=0;exitDy=0;entryX=1;entryY=0.75;entryDx=0;entryDy=0;endArrow=block;endFill=0;dashed=1;" parent="1" source="DVrZE9xDPVvh2_FHzCL8-26" target="GQ_4T4zPNiNKJBQMKuDR-1" edge="1">
          <mxGeometry relative="1" as="geometry">
            <Array as="points">
              <mxPoint x="1690" y="1040" />
              <mxPoint x="1690" y="908" />
            </Array>
          </mxGeometry>
        </mxCell>
        <mxCell id="GQ_4T4zPNiNKJBQMKuDR-8" style="edgeStyle=orthogonalEdgeStyle;rounded=0;orthogonalLoop=1;jettySize=auto;html=1;exitX=0;exitY=0.5;exitDx=0;exitDy=0;entryX=0.25;entryY=1;entryDx=0;entryDy=0;dashed=1;endArrow=open;endFill=0;" parent="1" source="DVrZE9xDPVvh2_FHzCL8-26" target="DVrZE9xDPVvh2_FHzCL8-41" edge="1">
          <mxGeometry relative="1" as="geometry">
            <Array as="points">
              <mxPoint x="1560" y="1065" />
              <mxPoint x="1560" y="1120" />
              <mxPoint x="976" y="1120" />
            </Array>
          </mxGeometry>
        </mxCell>
        <mxCell id="DVrZE9xDPVvh2_FHzCL8-26" value="&lt;i&gt;SkeletalEnemy&lt;/i&gt;" style="html=1;whiteSpace=wrap;" parent="1" vertex="1">
          <mxGeometry x="1600" y="1040" width="110" height="50" as="geometry" />
        </mxCell>
        <mxCell id="DVrZE9xDPVvh2_FHzCL8-32" style="edgeStyle=orthogonalEdgeStyle;rounded=0;orthogonalLoop=1;jettySize=auto;html=1;exitX=0.5;exitY=0;exitDx=0;exitDy=0;endArrow=block;endFill=0;" parent="1" source="DVrZE9xDPVvh2_FHzCL8-27" target="DVrZE9xDPVvh2_FHzCL8-24" edge="1">
          <mxGeometry relative="1" as="geometry" />
        </mxCell>
        <mxCell id="DVrZE9xDPVvh2_FHzCL8-27" value="LoneWolf" style="html=1;whiteSpace=wrap;" parent="1" vertex="1">
          <mxGeometry x="1160" y="1040" width="110" height="50" as="geometry" />
        </mxCell>
        <mxCell id="DVrZE9xDPVvh2_FHzCL8-31" style="edgeStyle=orthogonalEdgeStyle;rounded=0;orthogonalLoop=1;jettySize=auto;html=1;exitX=0.5;exitY=0;exitDx=0;exitDy=0;entryX=0.5;entryY=1;entryDx=0;entryDy=0;endArrow=block;endFill=0;" parent="1" source="DVrZE9xDPVvh2_FHzCL8-28" target="DVrZE9xDPVvh2_FHzCL8-24" edge="1">
          <mxGeometry relative="1" as="geometry" />
        </mxCell>
        <mxCell id="DVrZE9xDPVvh2_FHzCL8-42" style="edgeStyle=orthogonalEdgeStyle;rounded=0;orthogonalLoop=1;jettySize=auto;html=1;exitX=0;exitY=0.5;exitDx=0;exitDy=0;dashed=1;endArrow=open;endFill=0;" parent="1" source="DVrZE9xDPVvh2_FHzCL8-28" target="DVrZE9xDPVvh2_FHzCL8-41" edge="1">
          <mxGeometry relative="1" as="geometry" />
        </mxCell>
        <mxCell id="DVrZE9xDPVvh2_FHzCL8-28" value="PileOfBones" style="html=1;whiteSpace=wrap;" parent="1" vertex="1">
          <mxGeometry x="1030" y="1040" width="110" height="50" as="geometry" />
        </mxCell>
        <mxCell id="DVrZE9xDPVvh2_FHzCL8-44" style="edgeStyle=orthogonalEdgeStyle;rounded=0;orthogonalLoop=1;jettySize=auto;html=1;exitX=1;exitY=0.75;exitDx=0;exitDy=0;entryX=0;entryY=0.75;entryDx=0;entryDy=0;dashed=1;endArrow=open;endFill=0;" parent="1" source="DVrZE9xDPVvh2_FHzCL8-41" target="DVrZE9xDPVvh2_FHzCL8-24" edge="1">
          <mxGeometry relative="1" as="geometry">
            <Array as="points">
              <mxPoint x="1200" y="908" />
              <mxPoint x="1200" y="908" />
            </Array>
          </mxGeometry>
        </mxCell>
        <mxCell id="DVrZE9xDPVvh2_FHzCL8-41" value="EnemyFactory" style="html=1;whiteSpace=wrap;" parent="1" vertex="1">
          <mxGeometry x="948" y="870" width="110" height="50" as="geometry" />
        </mxCell>
        <mxCell id="DVrZE9xDPVvh2_FHzCL8-54" value="actions" style="shape=umlFrame;whiteSpace=wrap;html=1;pointerEvents=0;fillColor=#dae8fc;strokeColor=#6c8ebf;strokeWidth=5;" parent="1" vertex="1">
          <mxGeometry x="2790" y="-215" width="210" height="160" as="geometry" />
        </mxCell>
        <mxCell id="DVrZE9xDPVvh2_FHzCL8-55" value="actions" style="shape=umlFrame;whiteSpace=wrap;html=1;pointerEvents=0;width=81;height=30;fillColor=#dae8fc;strokeColor=#6c8ebf;strokeWidth=5;" parent="1" vertex="1">
          <mxGeometry x="2274" y="740" width="1286" height="500" as="geometry" />
        </mxCell>
        <mxCell id="DVrZE9xDPVvh2_FHzCL8-56" value="&lt;i&gt;Action&lt;/i&gt;" style="html=1;whiteSpace=wrap;" parent="1" vertex="1">
          <mxGeometry x="2839.5" y="-180" width="110" height="50" as="geometry" />
        </mxCell>
        <mxCell id="DVrZE9xDPVvh2_FHzCL8-57" value="behaviours" style="shape=umlFrame;whiteSpace=wrap;html=1;pointerEvents=0;width=70;height=30;fillColor=#dae8fc;strokeColor=#6c8ebf;strokeWidth=5;" parent="1" vertex="1">
          <mxGeometry x="1440" y="280" width="720" height="360" as="geometry" />
        </mxCell>
        <mxCell id="DVrZE9xDPVvh2_FHzCL8-64" style="edgeStyle=orthogonalEdgeStyle;rounded=0;orthogonalLoop=1;jettySize=auto;html=1;exitX=0.5;exitY=0;exitDx=0;exitDy=0;dashed=1;endArrow=block;endFill=0;" parent="1" source="DVrZE9xDPVvh2_FHzCL8-58" edge="1">
          <mxGeometry relative="1" as="geometry">
            <mxPoint x="1800" y="400" as="targetPoint" />
          </mxGeometry>
        </mxCell>
        <mxCell id="DVrZE9xDPVvh2_FHzCL8-58" value="AttackBehaviour" style="html=1;whiteSpace=wrap;" parent="1" vertex="1">
          <mxGeometry x="1670" y="519" width="110" height="50" as="geometry" />
        </mxCell>
        <mxCell id="DVrZE9xDPVvh2_FHzCL8-65" style="edgeStyle=orthogonalEdgeStyle;rounded=0;orthogonalLoop=1;jettySize=auto;html=1;exitX=0.5;exitY=0;exitDx=0;exitDy=0;entryX=0.5;entryY=1;entryDx=0;entryDy=0;dashed=1;endArrow=block;endFill=0;" parent="1" source="DVrZE9xDPVvh2_FHzCL8-59" target="DVrZE9xDPVvh2_FHzCL8-62" edge="1">
          <mxGeometry relative="1" as="geometry" />
        </mxCell>
        <mxCell id="DVrZE9xDPVvh2_FHzCL8-59" value="FollowBehaviour" style="html=1;whiteSpace=wrap;" parent="1" vertex="1">
          <mxGeometry x="1820" y="519" width="110" height="50" as="geometry" />
        </mxCell>
        <mxCell id="DVrZE9xDPVvh2_FHzCL8-66" style="edgeStyle=orthogonalEdgeStyle;rounded=0;orthogonalLoop=1;jettySize=auto;html=1;exitX=0.5;exitY=0;exitDx=0;exitDy=0;entryX=0.5;entryY=1;entryDx=0;entryDy=0;dashed=1;endArrow=block;endFill=0;" parent="1" source="DVrZE9xDPVvh2_FHzCL8-60" target="DVrZE9xDPVvh2_FHzCL8-62" edge="1">
          <mxGeometry relative="1" as="geometry" />
        </mxCell>
        <mxCell id="DVrZE9xDPVvh2_FHzCL8-60" value="WanderBehaviour" style="html=1;whiteSpace=wrap;" parent="1" vertex="1">
          <mxGeometry x="1970" y="519" width="110" height="50" as="geometry" />
        </mxCell>
        <mxCell id="DVrZE9xDPVvh2_FHzCL8-63" style="edgeStyle=orthogonalEdgeStyle;rounded=0;orthogonalLoop=1;jettySize=auto;html=1;exitX=0.5;exitY=0;exitDx=0;exitDy=0;entryX=0.5;entryY=1;entryDx=0;entryDy=0;dashed=1;endArrow=block;endFill=0;" parent="1" source="DVrZE9xDPVvh2_FHzCL8-61" target="DVrZE9xDPVvh2_FHzCL8-62" edge="1">
          <mxGeometry relative="1" as="geometry" />
        </mxCell>
        <mxCell id="GQ_4T4zPNiNKJBQMKuDR-4" style="edgeStyle=orthogonalEdgeStyle;rounded=0;orthogonalLoop=1;jettySize=auto;html=1;exitX=0.5;exitY=1;exitDx=0;exitDy=0;entryX=0.5;entryY=0;entryDx=0;entryDy=0;endArrow=open;endFill=0;" parent="1" source="DVrZE9xDPVvh2_FHzCL8-61" target="GQ_4T4zPNiNKJBQMKuDR-1" edge="1">
          <mxGeometry relative="1" as="geometry" />
        </mxCell>
        <mxCell id="GQ_4T4zPNiNKJBQMKuDR-5" value="Has" style="edgeLabel;html=1;align=center;verticalAlign=middle;resizable=0;points=[];" parent="GQ_4T4zPNiNKJBQMKuDR-4" vertex="1" connectable="0">
          <mxGeometry x="-0.2588" relative="1" as="geometry">
            <mxPoint as="offset" />
          </mxGeometry>
        </mxCell>
        <mxCell id="GQ_4T4zPNiNKJBQMKuDR-6" value="1" style="edgeLabel;html=1;align=center;verticalAlign=middle;resizable=0;points=[];" parent="GQ_4T4zPNiNKJBQMKuDR-4" vertex="1" connectable="0">
          <mxGeometry x="-0.9254" y="1" relative="1" as="geometry">
            <mxPoint x="14" as="offset" />
          </mxGeometry>
        </mxCell>
        <mxCell id="GQ_4T4zPNiNKJBQMKuDR-7" value="1" style="edgeLabel;html=1;align=center;verticalAlign=middle;resizable=0;points=[];" parent="GQ_4T4zPNiNKJBQMKuDR-4" vertex="1" connectable="0">
          <mxGeometry x="0.8464" y="-1" relative="1" as="geometry">
            <mxPoint x="16" y="3" as="offset" />
          </mxGeometry>
        </mxCell>
        <mxCell id="DVrZE9xDPVvh2_FHzCL8-61" value="AoEBehaviour" style="html=1;whiteSpace=wrap;" parent="1" vertex="1">
          <mxGeometry x="1520" y="519" width="110" height="50" as="geometry" />
        </mxCell>
        <mxCell id="DVrZE9xDPVvh2_FHzCL8-78" style="edgeStyle=orthogonalEdgeStyle;rounded=0;orthogonalLoop=1;jettySize=auto;html=1;dashed=1;endArrow=open;endFill=0;exitX=1;exitY=0.5;exitDx=0;exitDy=0;entryX=0;entryY=0.5;entryDx=0;entryDy=0;" parent="1" source="DVrZE9xDPVvh2_FHzCL8-62" target="DVrZE9xDPVvh2_FHzCL8-56" edge="1">
          <mxGeometry relative="1" as="geometry">
            <mxPoint x="2444" y="-160" as="targetPoint" />
            <Array as="points">
              <mxPoint x="2080" y="375" />
              <mxPoint x="2080" y="-155" />
            </Array>
          </mxGeometry>
        </mxCell>
        <mxCell id="DVrZE9xDPVvh2_FHzCL8-62" value="&lt;i&gt;&amp;lt;&amp;lt;Interface&amp;gt;&amp;gt;&lt;br&gt;Behaviour&lt;br&gt;&lt;/i&gt;" style="html=1;whiteSpace=wrap;" parent="1" vertex="1">
          <mxGeometry x="1745" y="350" width="110" height="50" as="geometry" />
        </mxCell>
        <mxCell id="DVrZE9xDPVvh2_FHzCL8-81" value="standardactions" style="shape=umlFrame;whiteSpace=wrap;html=1;pointerEvents=0;width=101;height=30;fillColor=#dae8fc;strokeColor=#6c8ebf;strokeWidth=5;" parent="1" vertex="1">
          <mxGeometry x="2315" y="905" width="685" height="240" as="geometry" />
        </mxCell>
        <mxCell id="DVrZE9xDPVvh2_FHzCL8-82" value="skills" style="shape=umlFrame;whiteSpace=wrap;html=1;pointerEvents=0;width=71;height=25;fillColor=#dae8fc;strokeColor=#6c8ebf;strokeWidth=5;" parent="1" vertex="1">
          <mxGeometry x="3060" y="800" width="440" height="400" as="geometry" />
        </mxCell>
        <mxCell id="DVrZE9xDPVvh2_FHzCL8-92" style="edgeStyle=orthogonalEdgeStyle;rounded=0;orthogonalLoop=1;jettySize=auto;html=1;exitX=0.5;exitY=0;exitDx=0;exitDy=0;entryX=0.5;entryY=1;entryDx=0;entryDy=0;endArrow=block;endFill=0;" parent="1" source="DVrZE9xDPVvh2_FHzCL8-84" target="DVrZE9xDPVvh2_FHzCL8-56" edge="1">
          <mxGeometry relative="1" as="geometry">
            <mxPoint x="2640" y="177.3333740234375" as="targetPoint" />
            <Array as="points">
              <mxPoint x="2859" y="680" />
              <mxPoint x="2499" y="680" />
            </Array>
          </mxGeometry>
        </mxCell>
        <mxCell id="DVrZE9xDPVvh2_FHzCL8-84" value="&lt;i&gt;AreaAttack&lt;/i&gt;" style="html=1;whiteSpace=wrap;" parent="1" vertex="1">
          <mxGeometry x="3225" y="920" width="110" height="50" as="geometry" />
        </mxCell>
        <mxCell id="DVrZE9xDPVvh2_FHzCL8-91" style="edgeStyle=orthogonalEdgeStyle;rounded=0;orthogonalLoop=1;jettySize=auto;html=1;exitX=0.5;exitY=0;exitDx=0;exitDy=0;entryX=0.5;entryY=1;entryDx=0;entryDy=0;endArrow=block;endFill=0;" parent="1" source="DVrZE9xDPVvh2_FHzCL8-86" target="DVrZE9xDPVvh2_FHzCL8-56" edge="1">
          <mxGeometry relative="1" as="geometry">
            <Array as="points">
              <mxPoint x="2450" y="680" />
              <mxPoint x="2895" y="680" />
            </Array>
          </mxGeometry>
        </mxCell>
        <mxCell id="t0Bz_2pWINCEnGQeBpR_-1" style="edgeStyle=orthogonalEdgeStyle;rounded=0;orthogonalLoop=1;jettySize=auto;html=1;exitX=0.25;exitY=0;exitDx=0;exitDy=0;entryX=1;entryY=0.75;entryDx=0;entryDy=0;endArrow=open;endFill=0;" parent="1" source="DVrZE9xDPVvh2_FHzCL8-86" target="DVrZE9xDPVvh2_FHzCL8-22" edge="1">
          <mxGeometry relative="1" as="geometry" />
        </mxCell>
        <mxCell id="t0Bz_2pWINCEnGQeBpR_-3" value="has" style="edgeLabel;html=1;align=center;verticalAlign=middle;resizable=0;points=[];" parent="t0Bz_2pWINCEnGQeBpR_-1" vertex="1" connectable="0">
          <mxGeometry x="-0.4894" y="-1" relative="1" as="geometry">
            <mxPoint x="1" as="offset" />
          </mxGeometry>
        </mxCell>
        <mxCell id="t0Bz_2pWINCEnGQeBpR_-6" value="1" style="edgeLabel;html=1;align=center;verticalAlign=middle;resizable=0;points=[];" parent="t0Bz_2pWINCEnGQeBpR_-1" vertex="1" connectable="0">
          <mxGeometry x="-0.9836" y="1" relative="1" as="geometry">
            <mxPoint x="-11" y="3" as="offset" />
          </mxGeometry>
        </mxCell>
        <mxCell id="t0Bz_2pWINCEnGQeBpR_-8" value="0..1" style="edgeLabel;html=1;align=center;verticalAlign=middle;resizable=0;points=[];" parent="t0Bz_2pWINCEnGQeBpR_-1" vertex="1" connectable="0">
          <mxGeometry x="0.9829" relative="1" as="geometry">
            <mxPoint y="18" as="offset" />
          </mxGeometry>
        </mxCell>
        <mxCell id="DVrZE9xDPVvh2_FHzCL8-86" value="DeathAction" style="html=1;whiteSpace=wrap;" parent="1" vertex="1">
          <mxGeometry x="2395" y="1050" width="110" height="50" as="geometry" />
        </mxCell>
        <mxCell id="DVrZE9xDPVvh2_FHzCL8-93" style="edgeStyle=orthogonalEdgeStyle;rounded=0;orthogonalLoop=1;jettySize=auto;html=1;exitX=0.5;exitY=0;exitDx=0;exitDy=0;entryX=0.5;entryY=1;entryDx=0;entryDy=0;endArrow=block;endFill=0;" parent="1" source="DVrZE9xDPVvh2_FHzCL8-90" target="DVrZE9xDPVvh2_FHzCL8-56" edge="1">
          <mxGeometry relative="1" as="geometry">
            <mxPoint x="2660" y="130" as="targetPoint" />
            <Array as="points">
              <mxPoint x="2600" y="680" />
              <mxPoint x="2895" y="680" />
            </Array>
          </mxGeometry>
        </mxCell>
        <mxCell id="GQ_4T4zPNiNKJBQMKuDR-13" style="edgeStyle=orthogonalEdgeStyle;rounded=0;orthogonalLoop=1;jettySize=auto;html=1;exitX=0;exitY=0.5;exitDx=0;exitDy=0;entryX=1;entryY=0.5;entryDx=0;entryDy=0;dashed=1;endArrow=open;endFill=0;" parent="1" source="DVrZE9xDPVvh2_FHzCL8-90" target="DVrZE9xDPVvh2_FHzCL8-86" edge="1">
          <mxGeometry relative="1" as="geometry" />
        </mxCell>
        <mxCell id="t0Bz_2pWINCEnGQeBpR_-2" style="edgeStyle=orthogonalEdgeStyle;rounded=0;orthogonalLoop=1;jettySize=auto;html=1;exitX=0.25;exitY=0;exitDx=0;exitDy=0;entryX=1;entryY=0.25;entryDx=0;entryDy=0;endArrow=open;endFill=0;" parent="1" source="DVrZE9xDPVvh2_FHzCL8-90" target="DVrZE9xDPVvh2_FHzCL8-22" edge="1">
          <mxGeometry relative="1" as="geometry" />
        </mxCell>
        <mxCell id="t0Bz_2pWINCEnGQeBpR_-4" value="has" style="edgeLabel;html=1;align=center;verticalAlign=middle;resizable=0;points=[];" parent="t0Bz_2pWINCEnGQeBpR_-2" vertex="1" connectable="0">
          <mxGeometry x="-0.5297" y="2" relative="1" as="geometry">
            <mxPoint x="1" y="-5" as="offset" />
          </mxGeometry>
        </mxCell>
        <mxCell id="t0Bz_2pWINCEnGQeBpR_-5" value="1" style="edgeLabel;html=1;align=center;verticalAlign=middle;resizable=0;points=[];" parent="t0Bz_2pWINCEnGQeBpR_-2" vertex="1" connectable="0">
          <mxGeometry x="-0.9873" y="-1" relative="1" as="geometry">
            <mxPoint x="-13" as="offset" />
          </mxGeometry>
        </mxCell>
        <mxCell id="t0Bz_2pWINCEnGQeBpR_-7" value="1" style="edgeLabel;html=1;align=center;verticalAlign=middle;resizable=0;points=[];" parent="t0Bz_2pWINCEnGQeBpR_-2" vertex="1" connectable="0">
          <mxGeometry x="0.9824" relative="1" as="geometry">
            <mxPoint y="-17" as="offset" />
          </mxGeometry>
        </mxCell>
        <mxCell id="t0Bz_2pWINCEnGQeBpR_-9" style="edgeStyle=orthogonalEdgeStyle;rounded=0;orthogonalLoop=1;jettySize=auto;html=1;exitX=0.75;exitY=0;exitDx=0;exitDy=0;entryX=0;entryY=0.5;entryDx=0;entryDy=0;endArrow=open;endFill=0;" parent="1" source="DVrZE9xDPVvh2_FHzCL8-90" target="DVrZE9xDPVvh2_FHzCL8-126" edge="1">
          <mxGeometry relative="1" as="geometry" />
        </mxCell>
        <mxCell id="t0Bz_2pWINCEnGQeBpR_-10" value="1" style="edgeLabel;html=1;align=center;verticalAlign=middle;resizable=0;points=[];" parent="t0Bz_2pWINCEnGQeBpR_-9" vertex="1" connectable="0">
          <mxGeometry x="0.9805" y="-2" relative="1" as="geometry">
            <mxPoint x="6" y="-17" as="offset" />
          </mxGeometry>
        </mxCell>
        <mxCell id="t0Bz_2pWINCEnGQeBpR_-11" value="1" style="edgeLabel;html=1;align=center;verticalAlign=middle;resizable=0;points=[];" parent="t0Bz_2pWINCEnGQeBpR_-9" vertex="1" connectable="0">
          <mxGeometry x="-0.9855" y="-1" relative="1" as="geometry">
            <mxPoint x="12" as="offset" />
          </mxGeometry>
        </mxCell>
        <mxCell id="t0Bz_2pWINCEnGQeBpR_-12" value="has" style="edgeLabel;html=1;align=center;verticalAlign=middle;resizable=0;points=[];" parent="t0Bz_2pWINCEnGQeBpR_-9" vertex="1" connectable="0">
          <mxGeometry x="-0.4525" y="3" relative="1" as="geometry">
            <mxPoint x="2" y="5" as="offset" />
          </mxGeometry>
        </mxCell>
        <mxCell id="DVrZE9xDPVvh2_FHzCL8-90" value="AttackAction" style="html=1;whiteSpace=wrap;" parent="1" vertex="1">
          <mxGeometry x="2545" y="1050" width="110" height="50" as="geometry" />
        </mxCell>
        <mxCell id="DVrZE9xDPVvh2_FHzCL8-104" style="edgeStyle=orthogonalEdgeStyle;rounded=0;orthogonalLoop=1;jettySize=auto;html=1;exitX=0.5;exitY=0;exitDx=0;exitDy=0;entryX=0.5;entryY=1;entryDx=0;entryDy=0;endArrow=block;endFill=0;" parent="1" source="DVrZE9xDPVvh2_FHzCL8-101" target="DVrZE9xDPVvh2_FHzCL8-84" edge="1">
          <mxGeometry relative="1" as="geometry" />
        </mxCell>
        <mxCell id="DVrZE9xDPVvh2_FHzCL8-101" value="SpinningAttack" style="html=1;whiteSpace=wrap;" parent="1" vertex="1">
          <mxGeometry x="3225" y="1080" width="110" height="50" as="geometry" />
        </mxCell>
        <mxCell id="DVrZE9xDPVvh2_FHzCL8-103" style="edgeStyle=orthogonalEdgeStyle;rounded=0;orthogonalLoop=1;jettySize=auto;html=1;exitX=0.5;exitY=0;exitDx=0;exitDy=0;entryX=0.5;entryY=1;entryDx=0;entryDy=0;endArrow=block;endFill=0;" parent="1" source="DVrZE9xDPVvh2_FHzCL8-102" target="DVrZE9xDPVvh2_FHzCL8-84" edge="1">
          <mxGeometry relative="1" as="geometry">
            <Array as="points">
              <mxPoint x="3135" y="1030" />
              <mxPoint x="3280" y="1030" />
            </Array>
          </mxGeometry>
        </mxCell>
        <mxCell id="DVrZE9xDPVvh2_FHzCL8-102" value="Slam" style="html=1;whiteSpace=wrap;" parent="1" vertex="1">
          <mxGeometry x="3080" y="1080" width="110" height="50" as="geometry" />
        </mxCell>
        <mxCell id="DVrZE9xDPVvh2_FHzCL8-122" value="weapons" style="shape=umlFrame;whiteSpace=wrap;html=1;pointerEvents=0;fillColor=#dae8fc;strokeColor=#6c8ebf;strokeWidth=5;" parent="1" vertex="1">
          <mxGeometry x="3351" y="-280" width="489" height="250" as="geometry" />
        </mxCell>
        <mxCell id="DVrZE9xDPVvh2_FHzCL8-128" style="edgeStyle=orthogonalEdgeStyle;rounded=0;orthogonalLoop=1;jettySize=auto;html=1;exitX=0.5;exitY=0;exitDx=0;exitDy=0;entryX=0.5;entryY=1;entryDx=0;entryDy=0;endArrow=block;endFill=0;dashed=1;" parent="1" source="DVrZE9xDPVvh2_FHzCL8-124" target="DVrZE9xDPVvh2_FHzCL8-126" edge="1">
          <mxGeometry relative="1" as="geometry" />
        </mxCell>
        <mxCell id="DVrZE9xDPVvh2_FHzCL8-124" value="&lt;i&gt;WeaponItem&lt;/i&gt;" style="html=1;whiteSpace=wrap;" parent="1" vertex="1">
          <mxGeometry x="3396" y="-120" width="110" height="50" as="geometry" />
        </mxCell>
        <mxCell id="DVrZE9xDPVvh2_FHzCL8-129" style="edgeStyle=orthogonalEdgeStyle;rounded=0;orthogonalLoop=1;jettySize=auto;html=1;exitX=0.5;exitY=0;exitDx=0;exitDy=0;entryX=0.5;entryY=1;entryDx=0;entryDy=0;endArrow=block;endFill=0;dashed=1;" parent="1" source="DVrZE9xDPVvh2_FHzCL8-125" target="DVrZE9xDPVvh2_FHzCL8-126" edge="1">
          <mxGeometry relative="1" as="geometry">
            <Array as="points">
              <mxPoint x="4655" y="-160" />
              <mxPoint x="3526" y="-160" />
            </Array>
          </mxGeometry>
        </mxCell>
        <mxCell id="GQ_4T4zPNiNKJBQMKuDR-26" style="edgeStyle=orthogonalEdgeStyle;rounded=0;orthogonalLoop=1;jettySize=auto;html=1;exitX=1;exitY=0.5;exitDx=0;exitDy=0;entryX=0.5;entryY=1;entryDx=0;entryDy=0;dashed=1;endArrow=open;endFill=0;" parent="1" source="DVrZE9xDPVvh2_FHzCL8-125" target="DVrZE9xDPVvh2_FHzCL8-102" edge="1">
          <mxGeometry relative="1" as="geometry">
            <Array as="points">
              <mxPoint x="4440" y="864" />
              <mxPoint x="4440" y="1480" />
              <mxPoint x="3135" y="1480" />
            </Array>
          </mxGeometry>
        </mxCell>
        <mxCell id="DVrZE9xDPVvh2_FHzCL8-125" value="&lt;i&gt;GiantWeapon&lt;/i&gt;" style="html=1;whiteSpace=wrap;" parent="1" vertex="1">
          <mxGeometry x="4600" y="839.3299999999999" width="110" height="50" as="geometry" />
        </mxCell>
        <mxCell id="DVrZE9xDPVvh2_FHzCL8-126" value="&lt;i&gt;&amp;lt;&amp;lt;Interface&amp;gt;&amp;gt;&lt;br&gt;Weapon&lt;br&gt;&lt;/i&gt;" style="html=1;whiteSpace=wrap;" parent="1" vertex="1">
          <mxGeometry x="3466" y="-250" width="120" height="50" as="geometry" />
        </mxCell>
        <mxCell id="DVrZE9xDPVvh2_FHzCL8-134" style="edgeStyle=orthogonalEdgeStyle;rounded=0;orthogonalLoop=1;jettySize=auto;html=1;entryX=0.5;entryY=1;entryDx=0;entryDy=0;endArrow=block;endFill=0;exitX=0.5;exitY=0;exitDx=0;exitDy=0;" parent="1" source="GvI2FiEt4xrr71h0F2b2-43" target="nsnOx-FJP-ZMzzhBmRzz-1" edge="1">
          <mxGeometry relative="1" as="geometry">
            <mxPoint x="3846" y="839" as="sourcePoint" />
          </mxGeometry>
        </mxCell>
        <mxCell id="DVrZE9xDPVvh2_FHzCL8-149" value="enums" style="shape=umlFrame;whiteSpace=wrap;html=1;pointerEvents=0;fillColor=#dae8fc;strokeColor=#6c8ebf;strokeWidth=5;" parent="1" vertex="1">
          <mxGeometry x="872" y="280" width="378" height="271" as="geometry" />
        </mxCell>
        <mxCell id="DVrZE9xDPVvh2_FHzCL8-150" value="&amp;lt;&amp;lt;enumeration&amp;gt;&amp;gt;&lt;br&gt;Species" style="html=1;whiteSpace=wrap;" parent="1" vertex="1">
          <mxGeometry x="1080" y="390.5" width="110" height="50" as="geometry" />
        </mxCell>
        <mxCell id="DVrZE9xDPVvh2_FHzCL8-162" value="&lt;b&gt;&lt;font style=&quot;font-size: 30px;&quot;&gt;game&lt;/font&gt;&lt;/b&gt;" style="shape=umlFrame;whiteSpace=wrap;html=1;pointerEvents=0;strokeWidth=5;fillColor=#f8cecc;strokeColor=#b85450;width=160;height=60;" parent="1" vertex="1">
          <mxGeometry x="-630" y="230" width="5800" height="1760" as="geometry" />
        </mxCell>
        <mxCell id="DVrZE9xDPVvh2_FHzCL8-163" value="&lt;b&gt;&lt;font style=&quot;font-size: 30px;&quot;&gt;Engine&lt;/font&gt;&lt;/b&gt;" style="shape=umlFrame;whiteSpace=wrap;html=1;pointerEvents=0;strokeWidth=5;fillColor=#f8cecc;strokeColor=#b85450;width=130;height=60;" parent="1" vertex="1">
          <mxGeometry x="160" y="-400" width="3760" height="480" as="geometry" />
        </mxCell>
        <mxCell id="nA44q0fjmFgXWdIEp-3O-6" style="edgeStyle=orthogonalEdgeStyle;rounded=0;orthogonalLoop=1;jettySize=auto;html=1;exitX=0.5;exitY=1;exitDx=0;exitDy=0;entryX=0.5;entryY=0;entryDx=0;entryDy=0;endArrow=open;endFill=0;" parent="1" source="nA44q0fjmFgXWdIEp-3O-5" target="DVrZE9xDPVvh2_FHzCL8-3" edge="1">
          <mxGeometry relative="1" as="geometry" />
        </mxCell>
        <mxCell id="nA44q0fjmFgXWdIEp-3O-7" value="Has" style="edgeLabel;html=1;align=center;verticalAlign=middle;resizable=0;points=[];" parent="nA44q0fjmFgXWdIEp-3O-6" vertex="1" connectable="0">
          <mxGeometry x="-0.252" y="-1" relative="1" as="geometry">
            <mxPoint x="1" y="6" as="offset" />
          </mxGeometry>
        </mxCell>
        <mxCell id="nA44q0fjmFgXWdIEp-3O-8" value="1" style="edgeLabel;html=1;align=center;verticalAlign=middle;resizable=0;points=[];" parent="nA44q0fjmFgXWdIEp-3O-6" vertex="1" connectable="0">
          <mxGeometry x="-0.8711" y="1" relative="1" as="geometry">
            <mxPoint x="11" y="6" as="offset" />
          </mxGeometry>
        </mxCell>
        <mxCell id="nA44q0fjmFgXWdIEp-3O-9" value="1" style="edgeLabel;html=1;align=center;verticalAlign=middle;resizable=0;points=[];" parent="nA44q0fjmFgXWdIEp-3O-6" vertex="1" connectable="0">
          <mxGeometry x="0.6125" relative="1" as="geometry">
            <mxPoint x="12" as="offset" />
          </mxGeometry>
        </mxCell>
        <mxCell id="nA44q0fjmFgXWdIEp-3O-5" value="Location" style="html=1;whiteSpace=wrap;" parent="1" vertex="1">
          <mxGeometry x="453" y="-300" width="110" height="50" as="geometry" />
        </mxCell>
        <mxCell id="nA44q0fjmFgXWdIEp-3O-36" value="weapons" style="shape=umlFrame;whiteSpace=wrap;html=1;pointerEvents=0;width=90;height=37;strokeWidth=5;fillColor=#dae8fc;strokeColor=#6c8ebf;" parent="1" vertex="1">
          <mxGeometry x="3680" y="680" width="1240" height="560" as="geometry" />
        </mxCell>
        <mxCell id="GvI2FiEt4xrr71h0F2b2-14" style="edgeStyle=orthogonalEdgeStyle;rounded=0;orthogonalLoop=1;jettySize=auto;html=1;exitX=0.5;exitY=0;exitDx=0;exitDy=0;entryX=0.5;entryY=1;entryDx=0;entryDy=0;endArrow=block;endFill=0;" parent="1" source="GvI2FiEt4xrr71h0F2b2-4" target="DVrZE9xDPVvh2_FHzCL8-25" edge="1">
          <mxGeometry relative="1" as="geometry" />
        </mxCell>
        <mxCell id="GQ_4T4zPNiNKJBQMKuDR-30" style="edgeStyle=orthogonalEdgeStyle;rounded=0;orthogonalLoop=1;jettySize=auto;html=1;exitX=0.75;exitY=1;exitDx=0;exitDy=0;entryX=0.5;entryY=1;entryDx=0;entryDy=0;dashed=1;endArrow=open;endFill=0;" parent="1" source="GvI2FiEt4xrr71h0F2b2-4" target="GQ_4T4zPNiNKJBQMKuDR-22" edge="1">
          <mxGeometry relative="1" as="geometry">
            <Array as="points">
              <mxPoint x="1373" y="1520" />
              <mxPoint x="4655" y="1520" />
            </Array>
          </mxGeometry>
        </mxCell>
        <mxCell id="GvI2FiEt4xrr71h0F2b2-4" value="GiantCrab" style="html=1;whiteSpace=wrap;" parent="1" vertex="1">
          <mxGeometry x="1290" y="1190" width="110" height="50" as="geometry" />
        </mxCell>
        <mxCell id="GvI2FiEt4xrr71h0F2b2-15" style="edgeStyle=orthogonalEdgeStyle;rounded=0;orthogonalLoop=1;jettySize=auto;html=1;exitX=0.5;exitY=0;exitDx=0;exitDy=0;entryX=0.5;entryY=1;entryDx=0;entryDy=0;endArrow=block;endFill=0;" parent="1" source="GvI2FiEt4xrr71h0F2b2-5" target="DVrZE9xDPVvh2_FHzCL8-25" edge="1">
          <mxGeometry relative="1" as="geometry" />
        </mxCell>
        <mxCell id="GQ_4T4zPNiNKJBQMKuDR-31" style="edgeStyle=orthogonalEdgeStyle;rounded=0;orthogonalLoop=1;jettySize=auto;html=1;exitX=0.75;exitY=1;exitDx=0;exitDy=0;entryX=0.5;entryY=1;entryDx=0;entryDy=0;dashed=1;endArrow=open;endFill=0;" parent="1" source="GvI2FiEt4xrr71h0F2b2-5" target="GQ_4T4zPNiNKJBQMKuDR-21" edge="1">
          <mxGeometry relative="1" as="geometry">
            <Array as="points">
              <mxPoint x="1493" y="1560" />
              <mxPoint x="4785" y="1560" />
            </Array>
          </mxGeometry>
        </mxCell>
        <mxCell id="GvI2FiEt4xrr71h0F2b2-5" value="GiantCrayfish" style="html=1;whiteSpace=wrap;" parent="1" vertex="1">
          <mxGeometry x="1410" y="1190" width="110" height="50" as="geometry" />
        </mxCell>
        <mxCell id="GvI2FiEt4xrr71h0F2b2-12" style="edgeStyle=orthogonalEdgeStyle;rounded=0;orthogonalLoop=1;jettySize=auto;html=1;exitX=0.5;exitY=0;exitDx=0;exitDy=0;entryX=0.5;entryY=1;entryDx=0;entryDy=0;endArrow=block;endFill=0;" parent="1" source="GvI2FiEt4xrr71h0F2b2-6" target="DVrZE9xDPVvh2_FHzCL8-25" edge="1">
          <mxGeometry relative="1" as="geometry" />
        </mxCell>
        <mxCell id="GQ_4T4zPNiNKJBQMKuDR-29" style="edgeStyle=orthogonalEdgeStyle;rounded=0;orthogonalLoop=1;jettySize=auto;html=1;exitX=0.75;exitY=1;exitDx=0;exitDy=0;entryX=0.5;entryY=1;entryDx=0;entryDy=0;dashed=1;endArrow=open;endFill=0;" parent="1" source="GvI2FiEt4xrr71h0F2b2-6" target="GQ_4T4zPNiNKJBQMKuDR-20" edge="1">
          <mxGeometry relative="1" as="geometry">
            <Array as="points">
              <mxPoint x="1251" y="1400" />
              <mxPoint x="4525" y="1400" />
            </Array>
          </mxGeometry>
        </mxCell>
        <mxCell id="GvI2FiEt4xrr71h0F2b2-6" value="GiantDog" style="html=1;whiteSpace=wrap;" parent="1" vertex="1">
          <mxGeometry x="1169" y="1190" width="110" height="50" as="geometry" />
        </mxCell>
        <mxCell id="GvI2FiEt4xrr71h0F2b2-16" style="edgeStyle=orthogonalEdgeStyle;rounded=0;orthogonalLoop=1;jettySize=auto;html=1;exitX=0.5;exitY=0;exitDx=0;exitDy=0;entryX=0.5;entryY=1;entryDx=0;entryDy=0;endArrow=block;endFill=0;" parent="1" source="GvI2FiEt4xrr71h0F2b2-7" target="DVrZE9xDPVvh2_FHzCL8-26" edge="1">
          <mxGeometry relative="1" as="geometry" />
        </mxCell>
        <mxCell id="GvI2FiEt4xrr71h0F2b2-32" style="edgeStyle=orthogonalEdgeStyle;rounded=0;orthogonalLoop=1;jettySize=auto;html=1;exitX=0.75;exitY=1;exitDx=0;exitDy=0;entryX=0.5;entryY=1;entryDx=0;entryDy=0;endArrow=open;endFill=0;" parent="1" source="GvI2FiEt4xrr71h0F2b2-7" target="GvI2FiEt4xrr71h0F2b2-26" edge="1">
          <mxGeometry relative="1" as="geometry">
            <Array as="points">
              <mxPoint x="1623" y="1360" />
              <mxPoint x="3911" y="1360" />
            </Array>
          </mxGeometry>
        </mxCell>
        <mxCell id="GvI2FiEt4xrr71h0F2b2-35" value="Has" style="edgeLabel;html=1;align=center;verticalAlign=middle;resizable=0;points=[];" parent="GvI2FiEt4xrr71h0F2b2-32" vertex="1" connectable="0">
          <mxGeometry x="-0.6468" y="-2" relative="1" as="geometry">
            <mxPoint x="1054" y="-2" as="offset" />
          </mxGeometry>
        </mxCell>
        <mxCell id="GvI2FiEt4xrr71h0F2b2-37" value="1" style="edgeLabel;html=1;align=center;verticalAlign=middle;resizable=0;points=[];" parent="GvI2FiEt4xrr71h0F2b2-32" vertex="1" connectable="0">
          <mxGeometry x="-0.9891" relative="1" as="geometry">
            <mxPoint x="5" y="-4" as="offset" />
          </mxGeometry>
        </mxCell>
        <mxCell id="GvI2FiEt4xrr71h0F2b2-39" value="1" style="edgeLabel;html=1;align=center;verticalAlign=middle;resizable=0;points=[];" parent="GvI2FiEt4xrr71h0F2b2-32" vertex="1" connectable="0">
          <mxGeometry x="0.9846" relative="1" as="geometry">
            <mxPoint x="15" y="-9" as="offset" />
          </mxGeometry>
        </mxCell>
        <mxCell id="GvI2FiEt4xrr71h0F2b2-7" value="SkeletalBandit" style="html=1;whiteSpace=wrap;" parent="1" vertex="1">
          <mxGeometry x="1540" y="1190" width="110" height="50" as="geometry" />
        </mxCell>
        <mxCell id="GvI2FiEt4xrr71h0F2b2-17" style="edgeStyle=orthogonalEdgeStyle;rounded=0;orthogonalLoop=1;jettySize=auto;html=1;exitX=0.5;exitY=0;exitDx=0;exitDy=0;entryX=0.5;entryY=1;entryDx=0;entryDy=0;endArrow=block;endFill=0;" parent="1" source="GvI2FiEt4xrr71h0F2b2-8" target="DVrZE9xDPVvh2_FHzCL8-26" edge="1">
          <mxGeometry relative="1" as="geometry" />
        </mxCell>
        <mxCell id="GvI2FiEt4xrr71h0F2b2-33" style="edgeStyle=orthogonalEdgeStyle;rounded=0;orthogonalLoop=1;jettySize=auto;html=1;exitX=0.75;exitY=1;exitDx=0;exitDy=0;entryX=0.5;entryY=1;entryDx=0;entryDy=0;endArrow=open;endFill=0;" parent="1" source="GvI2FiEt4xrr71h0F2b2-8" target="GvI2FiEt4xrr71h0F2b2-25" edge="1">
          <mxGeometry relative="1" as="geometry">
            <Array as="points">
              <mxPoint x="1743" y="1320" />
              <mxPoint x="3780" y="1320" />
            </Array>
          </mxGeometry>
        </mxCell>
        <mxCell id="GvI2FiEt4xrr71h0F2b2-34" value="Has" style="edgeLabel;html=1;align=center;verticalAlign=middle;resizable=0;points=[];" parent="GvI2FiEt4xrr71h0F2b2-33" vertex="1" connectable="0">
          <mxGeometry x="-0.7379" y="4" relative="1" as="geometry">
            <mxPoint x="1062" y="4" as="offset" />
          </mxGeometry>
        </mxCell>
        <mxCell id="GvI2FiEt4xrr71h0F2b2-36" value="1" style="edgeLabel;html=1;align=center;verticalAlign=middle;resizable=0;points=[];" parent="GvI2FiEt4xrr71h0F2b2-33" vertex="1" connectable="0">
          <mxGeometry x="-0.9921" y="-1" relative="1" as="geometry">
            <mxPoint x="6" as="offset" />
          </mxGeometry>
        </mxCell>
        <mxCell id="GvI2FiEt4xrr71h0F2b2-38" value="1" style="edgeLabel;html=1;align=center;verticalAlign=middle;resizable=0;points=[];" parent="GvI2FiEt4xrr71h0F2b2-33" vertex="1" connectable="0">
          <mxGeometry x="0.9762" y="1" relative="1" as="geometry">
            <mxPoint x="-14" y="-16" as="offset" />
          </mxGeometry>
        </mxCell>
        <mxCell id="GvI2FiEt4xrr71h0F2b2-8" value="&lt;font style=&quot;font-size: 9px;&quot;&gt;HeavySkeletalSwordsman&lt;/font&gt;" style="html=1;whiteSpace=wrap;" parent="1" vertex="1">
          <mxGeometry x="1660" y="1190" width="110" height="50" as="geometry" />
        </mxCell>
        <mxCell id="GvI2FiEt4xrr71h0F2b2-27" style="edgeStyle=orthogonalEdgeStyle;rounded=0;orthogonalLoop=1;jettySize=auto;html=1;exitX=0.5;exitY=0;exitDx=0;exitDy=0;endArrow=block;endFill=0;entryX=0.5;entryY=1;entryDx=0;entryDy=0;" parent="1" source="GvI2FiEt4xrr71h0F2b2-25" target="GvI2FiEt4xrr71h0F2b2-43" edge="1">
          <mxGeometry relative="1" as="geometry">
            <mxPoint x="3846" y="807.33" as="targetPoint" />
          </mxGeometry>
        </mxCell>
        <mxCell id="GvI2FiEt4xrr71h0F2b2-25" value="Grossmesser" style="html=1;whiteSpace=wrap;" parent="1" vertex="1">
          <mxGeometry x="3726" y="980.83" width="110" height="50" as="geometry" />
        </mxCell>
        <mxCell id="GvI2FiEt4xrr71h0F2b2-28" style="edgeStyle=orthogonalEdgeStyle;rounded=0;orthogonalLoop=1;jettySize=auto;html=1;exitX=0.5;exitY=0;exitDx=0;exitDy=0;endArrow=block;endFill=0;entryX=0.5;entryY=1;entryDx=0;entryDy=0;" parent="1" source="GvI2FiEt4xrr71h0F2b2-26" target="GvI2FiEt4xrr71h0F2b2-43" edge="1">
          <mxGeometry relative="1" as="geometry" />
        </mxCell>
        <mxCell id="GvI2FiEt4xrr71h0F2b2-26" value="Scimitar" style="html=1;whiteSpace=wrap;" parent="1" vertex="1">
          <mxGeometry x="3856" y="980.83" width="110" height="50" as="geometry" />
        </mxCell>
        <mxCell id="GvI2FiEt4xrr71h0F2b2-46" style="edgeStyle=orthogonalEdgeStyle;rounded=0;orthogonalLoop=1;jettySize=auto;html=1;entryX=0.25;entryY=1;entryDx=0;entryDy=0;dashed=1;endArrow=open;endFill=0;exitX=0;exitY=0.5;exitDx=0;exitDy=0;" parent="1" source="GvI2FiEt4xrr71h0F2b2-43" target="DVrZE9xDPVvh2_FHzCL8-101" edge="1">
          <mxGeometry relative="1" as="geometry">
            <Array as="points">
              <mxPoint x="3600" y="864" />
              <mxPoint x="3600" y="1440" />
              <mxPoint x="3253" y="1440" />
              <mxPoint x="3253" y="1150" />
            </Array>
            <mxPoint x="3520" y="863" as="sourcePoint" />
          </mxGeometry>
        </mxCell>
        <mxCell id="GvI2FiEt4xrr71h0F2b2-43" value="&lt;i&gt;Sword&lt;/i&gt;" style="html=1;whiteSpace=wrap;" parent="1" vertex="1">
          <mxGeometry x="3791" y="839.33" width="110" height="50" as="geometry" />
        </mxCell>
        <mxCell id="SioX63HxhcE3thEykoqD-28" style="edgeStyle=orthogonalEdgeStyle;rounded=0;orthogonalLoop=1;jettySize=auto;html=1;exitX=0.5;exitY=0;exitDx=0;exitDy=0;entryX=0.5;entryY=0;entryDx=0;entryDy=0;endArrow=block;endFill=0;" parent="1" source="SioX63HxhcE3thEykoqD-1" target="DVrZE9xDPVvh2_FHzCL8-22" edge="1">
          <mxGeometry relative="1" as="geometry">
            <Array as="points">
              <mxPoint x="3620" y="-340" />
              <mxPoint x="1323" y="-340" />
            </Array>
          </mxGeometry>
        </mxCell>
        <mxCell id="nsnOx-FJP-ZMzzhBmRzz-3" style="edgeStyle=orthogonalEdgeStyle;rounded=0;orthogonalLoop=1;jettySize=auto;html=1;exitX=0.5;exitY=1;exitDx=0;exitDy=0;endArrow=open;endFill=0;dashed=1;entryX=0;entryY=0.5;entryDx=0;entryDy=0;" parent="1" source="SioX63HxhcE3thEykoqD-1" target="nsnOx-FJP-ZMzzhBmRzz-1" edge="1">
          <mxGeometry relative="1" as="geometry">
            <mxPoint x="3930" y="765" as="targetPoint" />
          </mxGeometry>
        </mxCell>
        <mxCell id="SioX63HxhcE3thEykoqD-1" value="Trader" style="html=1;whiteSpace=wrap;" parent="1" vertex="1">
          <mxGeometry x="3565" y="524.9200000000001" width="110" height="50" as="geometry" />
        </mxCell>
        <mxCell id="SioX63HxhcE3thEykoqD-5" value="&amp;lt;&amp;lt;enumeration&amp;gt;&amp;gt;&lt;br&gt;Status" style="html=1;whiteSpace=wrap;" parent="1" vertex="1">
          <mxGeometry x="930" y="390.5" width="110" height="50" as="geometry" />
        </mxCell>
        <mxCell id="SioX63HxhcE3thEykoqD-13" style="edgeStyle=orthogonalEdgeStyle;rounded=0;orthogonalLoop=1;jettySize=auto;html=1;exitX=0.25;exitY=0;exitDx=0;exitDy=0;entryX=0.5;entryY=1;entryDx=0;entryDy=0;endArrow=open;endFill=0;" parent="1" source="DVrZE9xDPVvh2_FHzCL8-24" target="SioX63HxhcE3thEykoqD-5" edge="1">
          <mxGeometry relative="1" as="geometry">
            <mxPoint x="1268" y="785" as="sourcePoint" />
            <Array as="points">
              <mxPoint x="1296" y="800" />
              <mxPoint x="985" y="800" />
            </Array>
          </mxGeometry>
        </mxCell>
        <mxCell id="SioX63HxhcE3thEykoqD-15" value="Has" style="edgeLabel;html=1;align=center;verticalAlign=middle;resizable=0;points=[];" parent="SioX63HxhcE3thEykoqD-13" vertex="1" connectable="0">
          <mxGeometry x="0.3581" y="1" relative="1" as="geometry">
            <mxPoint x="1" y="-39" as="offset" />
          </mxGeometry>
        </mxCell>
        <mxCell id="SioX63HxhcE3thEykoqD-17" value="1" style="edgeLabel;html=1;align=center;verticalAlign=middle;resizable=0;points=[];" parent="SioX63HxhcE3thEykoqD-13" vertex="1" connectable="0">
          <mxGeometry x="-0.9296" y="1" relative="1" as="geometry">
            <mxPoint x="14" y="-16" as="offset" />
          </mxGeometry>
        </mxCell>
        <mxCell id="SioX63HxhcE3thEykoqD-22" value="1..4" style="edgeLabel;html=1;align=center;verticalAlign=middle;resizable=0;points=[];" parent="SioX63HxhcE3thEykoqD-13" vertex="1" connectable="0">
          <mxGeometry x="0.9545" y="1" relative="1" as="geometry">
            <mxPoint x="-24" y="-4" as="offset" />
          </mxGeometry>
        </mxCell>
        <mxCell id="SioX63HxhcE3thEykoqD-11" value="traders" style="shape=umlFrame;whiteSpace=wrap;html=1;pointerEvents=0;strokeWidth=5;fillColor=#dae8fc;strokeColor=#6c8ebf;" parent="1" vertex="1">
          <mxGeometry x="3530" y="477" width="180" height="145.83" as="geometry" />
        </mxCell>
        <mxCell id="GQ_4T4zPNiNKJBQMKuDR-1" value="&lt;i&gt;&amp;lt;&amp;lt;Interface&amp;gt;&amp;gt;&lt;br&gt;AoECapable&lt;br&gt;&lt;/i&gt;" style="html=1;whiteSpace=wrap;" parent="1" vertex="1">
          <mxGeometry x="1520" y="870" width="110" height="50" as="geometry" />
        </mxCell>
        <mxCell id="GQ_4T4zPNiNKJBQMKuDR-10" style="edgeStyle=orthogonalEdgeStyle;rounded=0;orthogonalLoop=1;jettySize=auto;html=1;exitX=0.5;exitY=0;exitDx=0;exitDy=0;entryX=0.5;entryY=1;entryDx=0;entryDy=0;endArrow=block;endFill=0;" parent="1" source="GQ_4T4zPNiNKJBQMKuDR-9" target="DVrZE9xDPVvh2_FHzCL8-56" edge="1">
          <mxGeometry relative="1" as="geometry">
            <Array as="points">
              <mxPoint x="2750" y="680" />
              <mxPoint x="2895" y="680" />
            </Array>
          </mxGeometry>
        </mxCell>
        <mxCell id="GQ_4T4zPNiNKJBQMKuDR-9" value="DespawnAction" style="html=1;whiteSpace=wrap;" parent="1" vertex="1">
          <mxGeometry x="2695" y="1050" width="110" height="50" as="geometry" />
        </mxCell>
        <mxCell id="GQ_4T4zPNiNKJBQMKuDR-23" style="edgeStyle=orthogonalEdgeStyle;rounded=0;orthogonalLoop=1;jettySize=auto;html=1;exitX=0.5;exitY=0;exitDx=0;exitDy=0;entryX=0.5;entryY=1;entryDx=0;entryDy=0;endArrow=block;endFill=0;" parent="1" source="GQ_4T4zPNiNKJBQMKuDR-20" target="DVrZE9xDPVvh2_FHzCL8-125" edge="1">
          <mxGeometry relative="1" as="geometry" />
        </mxCell>
        <mxCell id="GQ_4T4zPNiNKJBQMKuDR-20" value="GiantDogHead" style="html=1;whiteSpace=wrap;" parent="1" vertex="1">
          <mxGeometry x="4470" y="980.83" width="110" height="50" as="geometry" />
        </mxCell>
        <mxCell id="GQ_4T4zPNiNKJBQMKuDR-25" style="edgeStyle=orthogonalEdgeStyle;rounded=0;orthogonalLoop=1;jettySize=auto;html=1;exitX=0.5;exitY=0;exitDx=0;exitDy=0;entryX=0.5;entryY=1;entryDx=0;entryDy=0;endArrow=block;endFill=0;" parent="1" source="GQ_4T4zPNiNKJBQMKuDR-21" target="DVrZE9xDPVvh2_FHzCL8-125" edge="1">
          <mxGeometry relative="1" as="geometry" />
        </mxCell>
        <mxCell id="GQ_4T4zPNiNKJBQMKuDR-21" value="GiantCrayfishPincer" style="html=1;whiteSpace=wrap;" parent="1" vertex="1">
          <mxGeometry x="4730" y="980.83" width="110" height="50" as="geometry" />
        </mxCell>
        <mxCell id="GQ_4T4zPNiNKJBQMKuDR-24" style="edgeStyle=orthogonalEdgeStyle;rounded=0;orthogonalLoop=1;jettySize=auto;html=1;exitX=0.5;exitY=0;exitDx=0;exitDy=0;entryX=0.5;entryY=1;entryDx=0;entryDy=0;endArrow=block;endFill=0;" parent="1" source="GQ_4T4zPNiNKJBQMKuDR-22" target="DVrZE9xDPVvh2_FHzCL8-125" edge="1">
          <mxGeometry relative="1" as="geometry" />
        </mxCell>
        <mxCell id="GQ_4T4zPNiNKJBQMKuDR-22" value="GiantCrabClaw" style="html=1;whiteSpace=wrap;" parent="1" vertex="1">
          <mxGeometry x="4600" y="980.83" width="110" height="50" as="geometry" />
        </mxCell>
        <mxCell id="nsnOx-FJP-ZMzzhBmRzz-2" style="edgeStyle=orthogonalEdgeStyle;rounded=0;orthogonalLoop=1;jettySize=auto;html=1;exitX=0.5;exitY=0;exitDx=0;exitDy=0;entryX=0.5;entryY=1;entryDx=0;entryDy=0;endArrow=block;endFill=0;" parent="1" source="nsnOx-FJP-ZMzzhBmRzz-1" target="DVrZE9xDPVvh2_FHzCL8-124" edge="1">
          <mxGeometry relative="1" as="geometry">
            <Array as="points">
              <mxPoint x="3846" y="280" />
              <mxPoint x="3451" y="280" />
            </Array>
          </mxGeometry>
        </mxCell>
        <mxCell id="nsnOx-FJP-ZMzzhBmRzz-1" value="&lt;i&gt;TradableWeapon&lt;/i&gt;" style="html=1;whiteSpace=wrap;" parent="1" vertex="1">
          <mxGeometry x="3791" y="740" width="110" height="50" as="geometry" />
        </mxCell>
        <mxCell id="VcxnopSPneWliig466qK-39" style="edgeStyle=orthogonalEdgeStyle;rounded=0;orthogonalLoop=1;jettySize=auto;html=1;exitX=0.5;exitY=0;exitDx=0;exitDy=0;endArrow=block;endFill=0;" parent="1" source="VcxnopSPneWliig466qK-8" target="nsnOx-FJP-ZMzzhBmRzz-1" edge="1">
          <mxGeometry relative="1" as="geometry">
            <Array as="points">
              <mxPoint x="4055" y="820" />
              <mxPoint x="3846" y="820" />
            </Array>
          </mxGeometry>
        </mxCell>
        <mxCell id="VcxnopSPneWliig466qK-52" style="edgeStyle=orthogonalEdgeStyle;rounded=0;orthogonalLoop=1;jettySize=auto;html=1;exitX=0.75;exitY=1;exitDx=0;exitDy=0;entryX=0.5;entryY=1;entryDx=0;entryDy=0;dashed=1;endArrow=open;endFill=0;" parent="1" source="VcxnopSPneWliig466qK-8" target="VcxnopSPneWliig466qK-17" edge="1">
          <mxGeometry relative="1" as="geometry">
            <Array as="points">
              <mxPoint x="4083" y="1280" />
              <mxPoint x="3425" y="1280" />
            </Array>
          </mxGeometry>
        </mxCell>
        <mxCell id="VcxnopSPneWliig466qK-8" value="GraftedDragon" style="html=1;whiteSpace=wrap;fillColor=#f8cecc;strokeColor=#b85450;" parent="1" vertex="1">
          <mxGeometry x="4000" y="980.83" width="110" height="50" as="geometry" />
        </mxCell>
        <mxCell id="VcxnopSPneWliig466qK-34" style="edgeStyle=orthogonalEdgeStyle;rounded=0;orthogonalLoop=1;jettySize=auto;html=1;exitX=0.5;exitY=0;exitDx=0;exitDy=0;endArrow=block;endFill=0;" parent="1" source="VcxnopSPneWliig466qK-13" target="DVrZE9xDPVvh2_FHzCL8-24" edge="1">
          <mxGeometry relative="1" as="geometry" />
        </mxCell>
        <mxCell id="VcxnopSPneWliig466qK-35" style="edgeStyle=orthogonalEdgeStyle;rounded=0;orthogonalLoop=1;jettySize=auto;html=1;exitX=0.75;exitY=0;exitDx=0;exitDy=0;entryX=1;entryY=0.25;entryDx=0;entryDy=0;dashed=1;endArrow=block;endFill=0;" parent="1" source="VcxnopSPneWliig466qK-13" target="GQ_4T4zPNiNKJBQMKuDR-1" edge="1">
          <mxGeometry relative="1" as="geometry" />
        </mxCell>
        <mxCell id="VcxnopSPneWliig466qK-58" style="edgeStyle=orthogonalEdgeStyle;rounded=0;orthogonalLoop=1;jettySize=auto;html=1;exitX=0.25;exitY=1;exitDx=0;exitDy=0;entryX=0.25;entryY=1;entryDx=0;entryDy=0;endArrow=open;endFill=0;" parent="1" source="VcxnopSPneWliig466qK-13" target="VcxnopSPneWliig466qK-8" edge="1">
          <mxGeometry relative="1" as="geometry">
            <Array as="points">
              <mxPoint x="2080" y="1800" />
              <mxPoint x="4027" y="1800" />
            </Array>
          </mxGeometry>
        </mxCell>
        <mxCell id="VcxnopSPneWliig466qK-60" value="1" style="edgeLabel;html=1;align=center;verticalAlign=middle;resizable=0;points=[];" parent="VcxnopSPneWliig466qK-58" vertex="1" connectable="0">
          <mxGeometry x="0.9861" y="-1" relative="1" as="geometry">
            <mxPoint x="12" y="-14" as="offset" />
          </mxGeometry>
        </mxCell>
        <mxCell id="VcxnopSPneWliig466qK-64" value="Has" style="edgeLabel;html=1;align=center;verticalAlign=middle;resizable=0;points=[];" parent="VcxnopSPneWliig466qK-58" vertex="1" connectable="0">
          <mxGeometry x="-0.025" relative="1" as="geometry">
            <mxPoint as="offset" />
          </mxGeometry>
        </mxCell>
        <mxCell id="VcxnopSPneWliig466qK-67" value="1" style="edgeLabel;html=1;align=center;verticalAlign=middle;resizable=0;points=[];" parent="VcxnopSPneWliig466qK-58" vertex="1" connectable="0">
          <mxGeometry x="-0.9923" y="1" relative="1" as="geometry">
            <mxPoint x="9" y="-3" as="offset" />
          </mxGeometry>
        </mxCell>
        <mxCell id="VcxnopSPneWliig466qK-59" style="edgeStyle=orthogonalEdgeStyle;rounded=0;orthogonalLoop=1;jettySize=auto;html=1;exitX=0.75;exitY=1;exitDx=0;exitDy=0;entryX=0.25;entryY=1;entryDx=0;entryDy=0;endArrow=open;endFill=0;" parent="1" source="VcxnopSPneWliig466qK-13" target="VcxnopSPneWliig466qK-24" edge="1">
          <mxGeometry relative="1" as="geometry">
            <Array as="points">
              <mxPoint x="2140" y="1840" />
              <mxPoint x="4167" y="1840" />
            </Array>
          </mxGeometry>
        </mxCell>
        <mxCell id="VcxnopSPneWliig466qK-61" value="1" style="edgeLabel;html=1;align=center;verticalAlign=middle;resizable=0;points=[];" parent="VcxnopSPneWliig466qK-59" vertex="1" connectable="0">
          <mxGeometry x="0.9825" y="2" relative="1" as="geometry">
            <mxPoint x="15" y="-22" as="offset" />
          </mxGeometry>
        </mxCell>
        <mxCell id="VcxnopSPneWliig466qK-65" value="Has" style="edgeLabel;html=1;align=center;verticalAlign=middle;resizable=0;points=[];" parent="VcxnopSPneWliig466qK-59" vertex="1" connectable="0">
          <mxGeometry x="-0.0796" y="2" relative="1" as="geometry">
            <mxPoint as="offset" />
          </mxGeometry>
        </mxCell>
        <mxCell id="VcxnopSPneWliig466qK-68" value="1" style="edgeLabel;html=1;align=center;verticalAlign=middle;resizable=0;points=[];" parent="VcxnopSPneWliig466qK-59" vertex="1" connectable="0">
          <mxGeometry x="-0.9918" relative="1" as="geometry">
            <mxPoint x="10" y="-5" as="offset" />
          </mxGeometry>
        </mxCell>
        <mxCell id="VcxnopSPneWliig466qK-75" style="edgeStyle=orthogonalEdgeStyle;rounded=0;orthogonalLoop=1;jettySize=auto;html=1;exitX=1;exitY=0.5;exitDx=0;exitDy=0;entryX=0.25;entryY=1;entryDx=0;entryDy=0;endArrow=open;endFill=0;" parent="1" source="VcxnopSPneWliig466qK-13" target="VcxnopSPneWliig466qK-22" edge="1">
          <mxGeometry relative="1" as="geometry">
            <Array as="points">
              <mxPoint x="2245" y="1065" />
            </Array>
          </mxGeometry>
        </mxCell>
        <mxCell id="llVnvOnmz1sg6ddASP4--1" value="Has" style="edgeLabel;html=1;align=center;verticalAlign=middle;resizable=0;points=[];" vertex="1" connectable="0" parent="VcxnopSPneWliig466qK-75">
          <mxGeometry x="0.6281" y="4" relative="1" as="geometry">
            <mxPoint x="2" y="1" as="offset" />
          </mxGeometry>
        </mxCell>
        <mxCell id="llVnvOnmz1sg6ddASP4--2" value="1" style="edgeLabel;html=1;align=center;verticalAlign=middle;resizable=0;points=[];" vertex="1" connectable="0" parent="VcxnopSPneWliig466qK-75">
          <mxGeometry x="-0.9375" y="1" relative="1" as="geometry">
            <mxPoint x="-9" y="-14" as="offset" />
          </mxGeometry>
        </mxCell>
        <mxCell id="llVnvOnmz1sg6ddASP4--4" value="1" style="edgeLabel;html=1;align=center;verticalAlign=middle;resizable=0;points=[];" vertex="1" connectable="0" parent="VcxnopSPneWliig466qK-75">
          <mxGeometry x="0.9406" y="-2" relative="1" as="geometry">
            <mxPoint x="13" y="-3" as="offset" />
          </mxGeometry>
        </mxCell>
        <mxCell id="VcxnopSPneWliig466qK-13" value="GodrickTheGrafted" style="html=1;whiteSpace=wrap;fillColor=#f8cecc;strokeColor=#b85450;" parent="1" vertex="1">
          <mxGeometry x="2050" y="1040" width="120" height="50" as="geometry" />
        </mxCell>
        <mxCell id="VcxnopSPneWliig466qK-33" style="edgeStyle=orthogonalEdgeStyle;rounded=0;orthogonalLoop=1;jettySize=auto;html=1;exitX=0.5;exitY=0;exitDx=0;exitDy=0;endArrow=block;endFill=0;" parent="1" source="VcxnopSPneWliig466qK-14" target="DVrZE9xDPVvh2_FHzCL8-24" edge="1">
          <mxGeometry relative="1" as="geometry" />
        </mxCell>
        <mxCell id="VcxnopSPneWliig466qK-56" style="edgeStyle=orthogonalEdgeStyle;rounded=0;orthogonalLoop=1;jettySize=auto;html=1;exitX=0.75;exitY=1;exitDx=0;exitDy=0;entryX=0.5;entryY=1;entryDx=0;entryDy=0;endArrow=open;endFill=0;" parent="1" source="VcxnopSPneWliig466qK-14" target="VcxnopSPneWliig466qK-41" edge="1">
          <mxGeometry relative="1" as="geometry">
            <Array as="points">
              <mxPoint x="1983" y="1760" />
              <mxPoint x="4335" y="1760" />
            </Array>
          </mxGeometry>
        </mxCell>
        <mxCell id="VcxnopSPneWliig466qK-62" value="1" style="edgeLabel;html=1;align=center;verticalAlign=middle;resizable=0;points=[];" parent="VcxnopSPneWliig466qK-56" vertex="1" connectable="0">
          <mxGeometry x="0.9884" y="2" relative="1" as="geometry">
            <mxPoint x="17" y="-13" as="offset" />
          </mxGeometry>
        </mxCell>
        <mxCell id="VcxnopSPneWliig466qK-63" value="Has" style="edgeLabel;html=1;align=center;verticalAlign=middle;resizable=0;points=[];" parent="VcxnopSPneWliig466qK-56" vertex="1" connectable="0">
          <mxGeometry x="-0.0793" y="2" relative="1" as="geometry">
            <mxPoint x="1" as="offset" />
          </mxGeometry>
        </mxCell>
        <mxCell id="VcxnopSPneWliig466qK-66" value="1" style="edgeLabel;html=1;align=center;verticalAlign=middle;resizable=0;points=[];" parent="VcxnopSPneWliig466qK-56" vertex="1" connectable="0">
          <mxGeometry x="-0.9934" y="2" relative="1" as="geometry">
            <mxPoint x="6" y="-2" as="offset" />
          </mxGeometry>
        </mxCell>
        <mxCell id="VcxnopSPneWliig466qK-14" value="GodrickSoldier" style="html=1;whiteSpace=wrap;fillColor=#f8cecc;strokeColor=#b85450;" parent="1" vertex="1">
          <mxGeometry x="1900" y="1040" width="110" height="50" as="geometry" />
        </mxCell>
        <mxCell id="VcxnopSPneWliig466qK-32" style="edgeStyle=orthogonalEdgeStyle;rounded=0;orthogonalLoop=1;jettySize=auto;html=1;exitX=0.5;exitY=0;exitDx=0;exitDy=0;endArrow=block;endFill=0;" parent="1" source="VcxnopSPneWliig466qK-15" target="DVrZE9xDPVvh2_FHzCL8-24" edge="1">
          <mxGeometry relative="1" as="geometry" />
        </mxCell>
        <mxCell id="VcxnopSPneWliig466qK-15" value="Dog" style="html=1;whiteSpace=wrap;fillColor=#f8cecc;strokeColor=#b85450;" parent="1" vertex="1">
          <mxGeometry x="1750" y="1040" width="110" height="50" as="geometry" />
        </mxCell>
        <mxCell id="VcxnopSPneWliig466qK-36" style="edgeStyle=orthogonalEdgeStyle;rounded=0;orthogonalLoop=1;jettySize=auto;html=1;exitX=0.5;exitY=0;exitDx=0;exitDy=0;endArrow=block;endFill=0;" parent="1" source="VcxnopSPneWliig466qK-16" target="DVrZE9xDPVvh2_FHzCL8-56" edge="1">
          <mxGeometry relative="1" as="geometry">
            <Array as="points">
              <mxPoint x="2895" y="1050" />
            </Array>
          </mxGeometry>
        </mxCell>
        <mxCell id="VcxnopSPneWliig466qK-70" style="edgeStyle=orthogonalEdgeStyle;rounded=0;orthogonalLoop=1;jettySize=auto;html=1;exitX=1;exitY=0.5;exitDx=0;exitDy=0;entryX=1;entryY=0.5;entryDx=0;entryDy=0;endArrow=open;endFill=0;" parent="1" source="VcxnopSPneWliig466qK-16" target="nA44q0fjmFgXWdIEp-3O-5" edge="1">
          <mxGeometry relative="1" as="geometry">
            <Array as="points">
              <mxPoint x="3030" y="1075" />
              <mxPoint x="3030" y="-275" />
            </Array>
          </mxGeometry>
        </mxCell>
        <mxCell id="VcxnopSPneWliig466qK-71" value="1" style="edgeLabel;html=1;align=center;verticalAlign=middle;resizable=0;points=[];" parent="VcxnopSPneWliig466qK-70" vertex="1" connectable="0">
          <mxGeometry x="-0.9928" y="-1" relative="1" as="geometry">
            <mxPoint x="-4" y="-11" as="offset" />
          </mxGeometry>
        </mxCell>
        <mxCell id="VcxnopSPneWliig466qK-72" value="1" style="edgeLabel;html=1;align=center;verticalAlign=middle;resizable=0;points=[];" parent="VcxnopSPneWliig466qK-70" vertex="1" connectable="0">
          <mxGeometry x="0.9887" y="-1" relative="1" as="geometry">
            <mxPoint x="-5" y="-14" as="offset" />
          </mxGeometry>
        </mxCell>
        <mxCell id="VcxnopSPneWliig466qK-73" value="Has" style="edgeLabel;html=1;align=center;verticalAlign=middle;resizable=0;points=[];" parent="VcxnopSPneWliig466qK-70" vertex="1" connectable="0">
          <mxGeometry x="-0.9403" y="2" relative="1" as="geometry">
            <mxPoint as="offset" />
          </mxGeometry>
        </mxCell>
        <mxCell id="VcxnopSPneWliig466qK-16" value="TravelAction" style="html=1;whiteSpace=wrap;fillColor=#f8cecc;strokeColor=#b85450;" parent="1" vertex="1">
          <mxGeometry x="2839.5" y="1050" width="110" height="50" as="geometry" />
        </mxCell>
        <mxCell id="VcxnopSPneWliig466qK-53" style="edgeStyle=orthogonalEdgeStyle;rounded=0;orthogonalLoop=1;jettySize=auto;html=1;exitX=0.5;exitY=0;exitDx=0;exitDy=0;entryX=0.5;entryY=1;entryDx=0;entryDy=0;endArrow=block;endFill=0;" parent="1" source="VcxnopSPneWliig466qK-17" target="DVrZE9xDPVvh2_FHzCL8-84" edge="1">
          <mxGeometry relative="1" as="geometry">
            <Array as="points">
              <mxPoint x="3425" y="1030" />
              <mxPoint x="3280" y="1030" />
            </Array>
          </mxGeometry>
        </mxCell>
        <mxCell id="VcxnopSPneWliig466qK-17" value="Flamethrower" style="html=1;whiteSpace=wrap;fillColor=#f8cecc;strokeColor=#b85450;" parent="1" vertex="1">
          <mxGeometry x="3370" y="1080" width="110" height="50" as="geometry" />
        </mxCell>
        <mxCell id="VcxnopSPneWliig466qK-31" style="edgeStyle=orthogonalEdgeStyle;rounded=0;orthogonalLoop=1;jettySize=auto;html=1;exitX=0.5;exitY=0;exitDx=0;exitDy=0;endArrow=block;endFill=0;" parent="1" source="VcxnopSPneWliig466qK-18" target="DVrZE9xDPVvh2_FHzCL8-3" edge="1">
          <mxGeometry relative="1" as="geometry">
            <Array as="points">
              <mxPoint x="-105" y="720" />
              <mxPoint x="508" y="720" />
            </Array>
          </mxGeometry>
        </mxCell>
        <mxCell id="VcxnopSPneWliig466qK-43" style="edgeStyle=orthogonalEdgeStyle;rounded=0;orthogonalLoop=1;jettySize=auto;html=1;exitX=0.5;exitY=1;exitDx=0;exitDy=0;entryX=0.5;entryY=1;entryDx=0;entryDy=0;dashed=1;endArrow=open;endFill=0;" parent="1" source="VcxnopSPneWliig466qK-18" target="DVrZE9xDPVvh2_FHzCL8-86" edge="1">
          <mxGeometry relative="1" as="geometry">
            <Array as="points">
              <mxPoint x="-105" y="1680" />
              <mxPoint x="2450" y="1680" />
            </Array>
          </mxGeometry>
        </mxCell>
        <mxCell id="VcxnopSPneWliig466qK-18" value="Cliff" style="html=1;whiteSpace=wrap;fillColor=#f8cecc;strokeColor=#b85450;" parent="1" vertex="1">
          <mxGeometry x="-160" y="1040" width="110" height="50" as="geometry" />
        </mxCell>
        <mxCell id="VcxnopSPneWliig466qK-28" style="edgeStyle=orthogonalEdgeStyle;rounded=0;orthogonalLoop=1;jettySize=auto;html=1;exitX=0.5;exitY=0;exitDx=0;exitDy=0;endArrow=block;endFill=0;" parent="1" source="VcxnopSPneWliig466qK-19" target="DVrZE9xDPVvh2_FHzCL8-6" edge="1">
          <mxGeometry relative="1" as="geometry" />
        </mxCell>
        <mxCell id="VcxnopSPneWliig466qK-49" style="edgeStyle=orthogonalEdgeStyle;rounded=0;orthogonalLoop=1;jettySize=auto;html=1;exitX=0.5;exitY=1;exitDx=0;exitDy=0;entryX=0.5;entryY=1;entryDx=0;entryDy=0;dashed=1;endArrow=open;endFill=0;" parent="1" source="VcxnopSPneWliig466qK-19" target="VcxnopSPneWliig466qK-15" edge="1">
          <mxGeometry relative="1" as="geometry">
            <Array as="points">
              <mxPoint x="55" y="1640" />
              <mxPoint x="1805" y="1640" />
            </Array>
          </mxGeometry>
        </mxCell>
        <mxCell id="VcxnopSPneWliig466qK-19" value="Cage" style="html=1;whiteSpace=wrap;fillColor=#f8cecc;strokeColor=#b85450;" parent="1" vertex="1">
          <mxGeometry y="1040" width="110" height="50" as="geometry" />
        </mxCell>
        <mxCell id="VcxnopSPneWliig466qK-27" style="edgeStyle=orthogonalEdgeStyle;rounded=0;orthogonalLoop=1;jettySize=auto;html=1;exitX=0.5;exitY=0;exitDx=0;exitDy=0;entryX=0.5;entryY=1;entryDx=0;entryDy=0;endArrow=block;endFill=0;" parent="1" source="VcxnopSPneWliig466qK-20" target="DVrZE9xDPVvh2_FHzCL8-6" edge="1">
          <mxGeometry relative="1" as="geometry" />
        </mxCell>
        <mxCell id="VcxnopSPneWliig466qK-48" style="edgeStyle=orthogonalEdgeStyle;rounded=0;orthogonalLoop=1;jettySize=auto;html=1;exitX=0.5;exitY=1;exitDx=0;exitDy=0;entryX=0.25;entryY=1;entryDx=0;entryDy=0;dashed=1;endArrow=open;endFill=0;" parent="1" source="VcxnopSPneWliig466qK-20" target="VcxnopSPneWliig466qK-14" edge="1">
          <mxGeometry relative="1" as="geometry">
            <Array as="points">
              <mxPoint x="205" y="1600" />
              <mxPoint x="1928" y="1600" />
              <mxPoint x="1928" y="1090" />
            </Array>
          </mxGeometry>
        </mxCell>
        <mxCell id="VcxnopSPneWliig466qK-20" value="Barracks" style="html=1;whiteSpace=wrap;fillColor=#f8cecc;strokeColor=#b85450;" parent="1" vertex="1">
          <mxGeometry x="150" y="1040" width="110" height="50" as="geometry" />
        </mxCell>
        <mxCell id="VcxnopSPneWliig466qK-30" style="edgeStyle=orthogonalEdgeStyle;rounded=0;orthogonalLoop=1;jettySize=auto;html=1;exitX=0.5;exitY=0;exitDx=0;exitDy=0;endArrow=block;endFill=0;" parent="1" source="VcxnopSPneWliig466qK-21" target="DVrZE9xDPVvh2_FHzCL8-3" edge="1">
          <mxGeometry relative="1" as="geometry">
            <Array as="points">
              <mxPoint x="-255" y="720" />
              <mxPoint x="508" y="720" />
            </Array>
          </mxGeometry>
        </mxCell>
        <mxCell id="VcxnopSPneWliig466qK-21" value="SummonSign" style="html=1;whiteSpace=wrap;fillColor=#f8cecc;strokeColor=#b85450;" parent="1" vertex="1">
          <mxGeometry x="-310" y="1040" width="110" height="50" as="geometry" />
        </mxCell>
        <mxCell id="VcxnopSPneWliig466qK-22" value="RemembranceOfTheGrafted" style="html=1;whiteSpace=wrap;fillColor=#f8cecc;strokeColor=#b85450;" parent="1" vertex="1">
          <mxGeometry x="2200" y="474.92" width="180" height="50" as="geometry" />
        </mxCell>
        <mxCell id="VcxnopSPneWliig466qK-29" style="edgeStyle=orthogonalEdgeStyle;rounded=0;orthogonalLoop=1;jettySize=auto;html=1;exitX=0.5;exitY=0;exitDx=0;exitDy=0;endArrow=block;endFill=0;" parent="1" source="VcxnopSPneWliig466qK-23" target="DVrZE9xDPVvh2_FHzCL8-3" edge="1">
          <mxGeometry relative="1" as="geometry">
            <Array as="points">
              <mxPoint x="-405" y="720" />
              <mxPoint x="508" y="720" />
            </Array>
          </mxGeometry>
        </mxCell>
        <mxCell id="VcxnopSPneWliig466qK-45" style="edgeStyle=orthogonalEdgeStyle;rounded=0;orthogonalLoop=1;jettySize=auto;html=1;exitX=0;exitY=0.5;exitDx=0;exitDy=0;entryX=0;entryY=0.25;entryDx=0;entryDy=0;endArrow=open;endFill=0;" parent="1" source="VcxnopSPneWliig466qK-23" target="nA44q0fjmFgXWdIEp-3O-5" edge="1">
          <mxGeometry relative="1" as="geometry" />
        </mxCell>
        <mxCell id="VcxnopSPneWliig466qK-46" value="1" style="edgeLabel;html=1;align=center;verticalAlign=middle;resizable=0;points=[];" parent="VcxnopSPneWliig466qK-45" vertex="1" connectable="0">
          <mxGeometry x="-0.9551" y="2" relative="1" as="geometry">
            <mxPoint x="-8" y="22" as="offset" />
          </mxGeometry>
        </mxCell>
        <mxCell id="VcxnopSPneWliig466qK-47" value="1" style="edgeLabel;html=1;align=center;verticalAlign=middle;resizable=0;points=[];" parent="VcxnopSPneWliig466qK-45" vertex="1" connectable="0">
          <mxGeometry x="0.9693" y="-2" relative="1" as="geometry">
            <mxPoint x="12" y="-14" as="offset" />
          </mxGeometry>
        </mxCell>
        <mxCell id="VcxnopSPneWliig466qK-69" value="Has" style="edgeLabel;html=1;align=center;verticalAlign=middle;resizable=0;points=[];" parent="VcxnopSPneWliig466qK-45" vertex="1" connectable="0">
          <mxGeometry x="-0.4384" y="4" relative="1" as="geometry">
            <mxPoint x="4" as="offset" />
          </mxGeometry>
        </mxCell>
        <mxCell id="VcxnopSPneWliig466qK-51" style="edgeStyle=orthogonalEdgeStyle;rounded=0;orthogonalLoop=1;jettySize=auto;html=1;exitX=0.5;exitY=1;exitDx=0;exitDy=0;entryX=0.5;entryY=1;entryDx=0;entryDy=0;dashed=1;endArrow=open;endFill=0;" parent="1" source="VcxnopSPneWliig466qK-23" target="VcxnopSPneWliig466qK-16" edge="1">
          <mxGeometry relative="1" as="geometry">
            <Array as="points">
              <mxPoint x="-405" y="1720" />
              <mxPoint x="2895" y="1720" />
            </Array>
          </mxGeometry>
        </mxCell>
        <mxCell id="VcxnopSPneWliig466qK-23" value="GolderFogDoor" style="html=1;whiteSpace=wrap;fillColor=#f8cecc;strokeColor=#b85450;" parent="1" vertex="1">
          <mxGeometry x="-460" y="1040" width="110" height="50" as="geometry" />
        </mxCell>
        <mxCell id="VcxnopSPneWliig466qK-40" style="edgeStyle=orthogonalEdgeStyle;rounded=0;orthogonalLoop=1;jettySize=auto;html=1;exitX=0.5;exitY=0;exitDx=0;exitDy=0;endArrow=block;endFill=0;" parent="1" source="VcxnopSPneWliig466qK-24" target="nsnOx-FJP-ZMzzhBmRzz-1" edge="1">
          <mxGeometry relative="1" as="geometry">
            <Array as="points">
              <mxPoint x="4195" y="820" />
              <mxPoint x="3846" y="820" />
            </Array>
          </mxGeometry>
        </mxCell>
        <mxCell id="VcxnopSPneWliig466qK-54" style="edgeStyle=orthogonalEdgeStyle;rounded=0;orthogonalLoop=1;jettySize=auto;html=1;exitX=0.75;exitY=1;exitDx=0;exitDy=0;entryX=0.75;entryY=1;entryDx=0;entryDy=0;dashed=1;endArrow=open;endFill=0;" parent="1" source="VcxnopSPneWliig466qK-24" target="DVrZE9xDPVvh2_FHzCL8-101" edge="1">
          <mxGeometry relative="1" as="geometry">
            <Array as="points">
              <mxPoint x="4223" y="1600" />
              <mxPoint x="3307" y="1600" />
            </Array>
          </mxGeometry>
        </mxCell>
        <mxCell id="VcxnopSPneWliig466qK-24" value="AxeOfGodrick" style="html=1;whiteSpace=wrap;fillColor=#f8cecc;strokeColor=#b85450;" parent="1" vertex="1">
          <mxGeometry x="4140" y="980.83" width="110" height="50" as="geometry" />
        </mxCell>
        <mxCell id="VcxnopSPneWliig466qK-42" style="edgeStyle=orthogonalEdgeStyle;rounded=0;orthogonalLoop=1;jettySize=auto;html=1;exitX=0.5;exitY=0;exitDx=0;exitDy=0;endArrow=block;endFill=0;" parent="1" source="VcxnopSPneWliig466qK-41" target="nsnOx-FJP-ZMzzhBmRzz-1" edge="1">
          <mxGeometry relative="1" as="geometry">
            <Array as="points">
              <mxPoint x="4335" y="820" />
              <mxPoint x="3846" y="820" />
            </Array>
          </mxGeometry>
        </mxCell>
        <mxCell id="VcxnopSPneWliig466qK-41" value="HeavyCrossbow" style="html=1;whiteSpace=wrap;fillColor=#f8cecc;strokeColor=#b85450;" parent="1" vertex="1">
          <mxGeometry x="4280" y="980.83" width="110" height="50" as="geometry" />
        </mxCell>
        <mxCell id="VcxnopSPneWliig466qK-74" value="items" style="shape=umlFrame;whiteSpace=wrap;html=1;pointerEvents=0;width=70;height=30;fillColor=#dae8fc;strokeColor=#6c8ebf;strokeWidth=5;" parent="1" vertex="1">
          <mxGeometry x="2180" y="424.92" width="220" height="150" as="geometry" />
        </mxCell>
      </root>
    </mxGraphModel>
  </diagram>
</mxfile>
